<svg width="621" height="701" viewBox="0 0 621 701" fill="none" xmlns="http://www.w3.org/2000/svg">
<g clip-path="url(#clip0)">
<g opacity="0.2">
<path opacity="0.2" d="M461.219 639.604C460.661 640.643 460.018 641.633 459.295 642.566C452.907 638.076 446.409 633.668 439.802 629.342L440.23 628.494C441.759 625.543 444.047 623.051 446.859 621.277C450.506 619.035 454.618 618.543 458.001 620.365C461.383 622.188 463.271 625.833 463.471 630.089C463.574 633.404 462.797 636.687 461.219 639.604Z" fill="#3F3D56"/>
<path opacity="0.2" d="M470.117 622.918C474.136 615.334 472.697 606.7 466.904 603.633C461.11 600.565 453.156 604.226 449.137 611.81C445.118 619.393 446.557 628.027 452.35 631.095C458.144 634.162 466.099 630.501 470.117 622.918Z" fill="#3F3D56"/>
<path opacity="0.2" d="M479.012 606.137C483.031 598.554 481.592 589.919 475.798 586.852C470.004 583.784 462.05 587.445 458.031 595.029C454.012 602.612 455.451 611.246 461.245 614.314C467.038 617.381 474.993 613.72 479.012 606.137Z" fill="#3F3D56"/>
<path opacity="0.2" d="M487.906 589.356C491.925 581.773 490.486 573.139 484.693 570.071C478.899 567.004 470.944 570.665 466.926 578.248C462.907 585.831 464.346 594.466 470.139 597.533C475.933 600.601 483.888 596.94 487.906 589.356Z" fill="#3F3D56"/>
<path opacity="0.2" d="M496.792 572.585C500.81 565.001 499.372 556.367 493.578 553.299C487.784 550.232 479.83 553.893 475.811 561.476C471.792 569.06 473.231 577.694 479.025 580.761C484.818 583.829 492.773 580.168 496.792 572.585Z" fill="#3F3D56"/>
<path opacity="0.2" d="M507.847 431.363C507.36 428.781 507.056 426.168 506.935 423.543L536.95 433.641L507.017 418.075C507.451 410.341 509.461 402.776 512.923 395.845C516.384 388.914 521.225 382.762 527.149 377.767L556.152 419.688L533.631 373.064C540.25 368.924 547.65 366.19 555.372 365.033C563.094 363.877 570.971 364.322 578.513 366.341C586.055 368.36 593.1 371.909 599.21 376.769C605.319 381.628 610.362 387.693 614.024 394.586C617.687 401.478 619.889 409.051 620.496 416.831C621.102 424.612 620.099 432.434 617.549 439.81C614.999 447.187 610.956 453.959 605.673 459.705C600.39 465.452 593.98 470.049 586.842 473.211C587.584 477.234 587.89 481.326 587.754 485.414L542.165 485.05L587.097 492.45C585.578 501.776 581.757 510.576 575.98 518.055C570.203 525.533 562.652 531.455 554.009 535.283C555.913 545.778 554.824 556.597 550.866 566.503C546.908 576.409 540.242 585.002 531.629 591.299C523.016 597.597 512.804 601.345 502.16 602.115C491.516 602.885 480.871 600.646 471.44 595.654C462.009 590.662 454.174 583.118 448.831 573.885C443.487 564.652 440.851 554.102 441.223 543.442C441.594 532.782 444.96 522.442 450.934 513.603C456.908 504.765 465.249 497.785 475.005 493.461C472.733 480.92 474.743 467.978 480.712 456.715C486.681 445.452 496.263 436.52 507.92 431.354L507.847 431.363Z" fill="#5BC2D9"/>
<path opacity="0.1" d="M581.144 509.929C575.189 521.203 565.603 530.14 553.937 535.292C555.84 545.787 554.751 556.606 550.793 566.512C546.836 576.418 540.169 585.011 531.556 591.308C522.943 597.606 512.731 601.354 502.087 602.124C491.444 602.894 480.798 600.655 471.367 595.663C461.937 590.671 454.102 583.127 448.758 573.894C443.414 564.661 440.778 554.111 441.15 543.451C441.522 532.791 444.887 522.451 450.861 513.612C456.835 504.774 465.177 497.794 474.932 493.47C472.726 481.359 584.134 504.288 581.144 509.929Z" fill="black"/>
</g>
<g opacity="0.2">
<path opacity="0.2" d="M198.531 567.307C199.071 569.507 199.8 571.657 200.71 573.732C214.757 568.355 228.965 563.191 243.335 558.239C243.207 557.656 243.079 557.054 242.934 556.417C241.475 550.184 238.381 544.453 233.971 539.812C228.236 533.906 220.796 531.027 213.639 532.776C206.481 534.526 201.211 540.495 198.831 548.351C197.041 554.53 196.937 561.075 198.531 567.307Z" fill="#3F3D56"/>
<path opacity="0.2" d="M219.186 555.371C231.449 552.378 238.215 536.947 234.296 520.904C230.378 504.862 217.259 494.283 204.995 497.275C192.731 500.268 185.966 515.7 189.885 531.742C193.803 547.785 206.922 558.364 219.186 555.371Z" fill="#3F3D56"/>
<path opacity="0.2" d="M210.504 519.863C222.768 516.87 229.533 501.439 225.615 485.396C221.696 469.354 208.578 458.775 196.314 461.767C184.05 464.76 177.285 480.192 181.203 496.234C185.122 512.277 198.24 522.856 210.504 519.863Z" fill="#3F3D56"/>
<path opacity="0.2" d="M201.834 484.355C214.098 481.362 220.863 465.931 216.945 449.888C213.026 433.845 199.908 423.266 187.644 426.259C175.38 429.252 168.615 444.683 172.533 460.726C176.452 476.769 189.57 487.348 201.834 484.355Z" fill="#3F3D56"/>
<path opacity="0.2" d="M193.164 448.856C205.428 445.863 212.193 430.432 208.275 414.389C204.356 398.346 191.238 387.767 178.974 390.76C166.71 393.753 159.945 409.184 163.863 425.227C167.782 441.269 180.9 451.848 193.164 448.856Z" fill="#3F3D56"/>
<path opacity="0.2" d="M209.818 156.594C211.913 151.996 213.683 147.258 215.116 142.413L154.438 147.07L217.678 132.115C220.518 117.471 220.339 102.401 217.152 87.8275C213.965 73.2544 207.837 59.4845 199.142 47.3605L125.179 111.938L189.24 35.5404C178.839 24.7047 166.319 16.1246 152.458 10.3341C138.597 4.54358 123.691 1.66657 108.67 1.88213C93.6484 2.09769 78.832 5.40121 65.1429 11.5871C51.4538 17.773 39.185 26.7088 29.1 37.8384C19.0149 48.9681 11.3296 62.0534 6.52226 76.2799C1.71492 90.5063 -0.111514 105.57 1.15659 120.532C2.4247 135.494 6.76022 150.036 13.8933 163.251C21.0265 176.467 30.8045 188.073 42.6189 197.349C39.3525 204.508 36.8732 212.001 35.2245 219.695L120.557 240.546L33.2095 233.146C31.6219 251.29 34.5876 269.542 41.8378 286.251C49.088 302.96 60.3938 317.597 74.7312 328.837C66.2208 347.527 63.1437 368.234 65.852 388.59C68.5602 408.946 76.9444 428.129 90.0459 443.947C103.147 459.764 120.438 471.578 139.94 478.036C159.442 484.495 180.368 485.339 200.327 480.47C220.286 475.602 238.472 465.218 252.805 450.506C267.138 435.793 277.04 417.347 281.378 397.275C285.717 377.203 284.318 356.316 277.341 337.002C270.363 317.687 258.089 300.725 241.922 288.054C252.093 265.718 254.458 240.612 248.635 216.77C242.813 192.928 229.142 171.734 209.818 156.594Z" fill="#5BC2D9"/>
<path opacity="0.1" d="M35.9266 268.634C41.7135 292.48 55.387 313.674 74.7313 328.782C66.2209 347.472 63.1438 368.179 65.8521 388.535C68.5603 408.891 76.9445 428.074 90.046 443.892C103.148 459.71 120.438 471.523 139.94 477.982C159.442 484.441 180.368 485.284 200.327 480.415C220.286 475.547 238.472 465.163 252.805 450.451C267.138 435.739 277.04 417.292 281.379 397.221C285.717 377.149 284.318 356.261 277.341 336.947C270.363 317.633 258.089 300.67 241.922 288C251.76 266.456 33.009 256.704 35.9266 268.634Z" fill="black"/>
</g>
<path d="M511.266 154.097H509.233V44.4988C509.233 20.3301 489.329 0.754517 464.775 0.754517H215.745C191.191 0.754517 171.287 20.3483 171.287 44.4988V89.9291H171.132H170.695C170.007 89.9243 169.345 90.192 168.855 90.6737C168.365 91.1554 168.085 91.8118 168.078 92.4991V114.371C168.085 115.059 168.365 115.715 168.855 116.197C169.345 116.678 170.007 116.946 170.695 116.941H171.178H171.333V139.278H170.531C170.19 139.276 169.853 139.34 169.538 139.468C169.223 139.596 168.936 139.785 168.694 140.023C168.452 140.262 168.259 140.546 168.127 140.859C167.995 141.172 167.925 141.508 167.923 141.848V183.67C167.928 184.357 168.205 185.014 168.694 185.498C169.182 185.981 169.843 186.251 170.531 186.249H171.333V202.653H170.64C170.299 202.649 169.961 202.713 169.645 202.84C169.329 202.967 169.041 203.156 168.798 203.395C168.555 203.633 168.361 203.918 168.228 204.232C168.095 204.545 168.026 204.882 168.023 205.223V247.454C168.026 247.795 168.095 248.132 168.228 248.445C168.361 248.759 168.555 249.043 168.798 249.282C169.041 249.521 169.329 249.709 169.645 249.837C169.961 249.964 170.299 250.028 170.64 250.024H171.333V633.133C171.333 657.302 191.237 676.878 215.791 676.878H464.766C489.32 676.878 509.224 657.284 509.224 633.133V236.062H511.266C511.954 236.067 512.615 235.8 513.106 235.318C513.596 234.836 513.876 234.18 513.883 233.492V156.667C513.876 155.979 513.596 155.323 513.106 154.841C512.615 154.359 511.954 154.092 511.266 154.097Z" fill="url(#paint0_linear)"/>
<g opacity="0.9">
<path opacity="0.9" d="M507.309 156.785H501.665C500.512 156.785 499.577 157.72 499.577 158.872V235.643C499.577 236.796 500.512 237.73 501.665 237.73H507.309C508.462 237.73 509.397 236.796 509.397 235.643V158.872C509.397 157.72 508.462 156.785 507.309 156.785Z" fill="#E5E7EB"/>
<path opacity="0.9" d="M176.475 93.374H175.135C173.982 93.374 173.047 94.3084 173.047 95.461V117.935C173.047 119.087 173.982 120.022 175.135 120.022H176.475C177.628 120.022 178.563 119.087 178.563 117.935V95.461C178.563 94.3084 177.628 93.374 176.475 93.374Z" fill="#E5E7EB"/>
<path opacity="0.9" d="M176.976 142.158H174.934C173.781 142.158 172.846 143.092 172.846 144.245V186.449C172.846 187.602 173.781 188.536 174.934 188.536H176.976C178.13 188.536 179.064 187.602 179.064 186.449V144.245C179.064 143.092 178.13 142.158 176.976 142.158Z" fill="#E5E7EB"/>
<path opacity="0.9" d="M176.776 204.767H175.034C173.881 204.767 172.947 205.701 172.947 206.854V249.459C172.947 250.612 173.881 251.546 175.034 251.546H176.776C177.929 251.546 178.864 250.612 178.864 249.459V206.854C178.864 205.701 177.929 204.767 176.776 204.767Z" fill="#E5E7EB"/>
<path opacity="0.9" d="M469.325 5.31128H211.715C192.081 5.31128 176.165 21.22 176.165 40.8444V637.526C176.165 657.15 192.081 673.059 211.715 673.059H469.325C488.958 673.059 504.874 657.15 504.874 637.526V40.8444C504.874 21.22 488.958 5.31128 469.325 5.31128Z" fill="white"/>
<path opacity="0.9" d="M351.196 25.2515H312.346C310.397 25.2515 308.818 26.8305 308.818 28.7783V31.0385C308.818 32.9863 310.397 34.5654 312.346 34.5654H351.196C353.145 34.5654 354.725 32.9863 354.725 31.0385V28.7783C354.725 26.8305 353.145 25.2515 351.196 25.2515Z" fill="#E5E7EB"/>
<path opacity="0.9" d="M366.943 35.1941C369.863 35.1941 372.231 32.8276 372.231 29.9083C372.231 26.9891 369.863 24.6226 366.943 24.6226C364.022 24.6226 361.655 26.9891 361.655 29.9083C361.655 32.8276 364.022 35.1941 366.943 35.1941Z" fill="#E5E7EB"/>
</g>
<path d="M458.475 22.7087H420.846V27.2654C420.844 32.9632 418.578 38.4268 414.546 42.4548C410.514 46.4829 405.047 48.7457 399.347 48.7457H279.377C273.676 48.7457 268.209 46.4829 264.178 42.4548C260.146 38.4268 257.88 32.9632 257.877 27.2654V22.7087H222.574C215.651 22.7087 209.011 25.4577 204.116 30.3508C199.22 35.2439 196.47 41.8805 196.47 48.8004V629.579C196.47 636.499 199.22 643.135 204.116 648.029C209.011 652.922 215.651 655.671 222.574 655.671H458.475C465.398 655.671 472.037 652.922 476.933 648.029C481.828 643.135 484.578 636.499 484.578 629.579V48.8004C484.578 41.8805 481.828 35.2439 476.933 30.3508C472.037 25.4577 465.398 22.7087 458.475 22.7087Z" fill="#ECECF3"/>
<path d="M80.2383 696.262C109.037 696.262 132.382 692.316 132.382 687.449C132.382 682.582 109.037 678.636 80.2383 678.636C51.4401 678.636 28.0945 682.582 28.0945 687.449C28.0945 692.316 51.4401 696.262 80.2383 696.262Z" fill="#5BC2D9"/>
<path d="M101.802 673.032C104.035 670.954 106.132 668.475 106.771 665.531C107.409 662.588 106.151 658.979 103.297 657.894C100.106 656.673 96.6957 658.879 94.1154 661.111C91.5351 663.344 88.5628 665.896 85.1801 665.422C86.9275 663.842 88.2338 661.835 88.9707 659.599C89.7076 657.362 89.8498 654.972 89.3834 652.663C89.2375 651.713 88.8339 650.821 88.2163 650.084C86.4475 648.189 83.2381 649 81.1137 650.494C74.3757 655.233 72.4884 664.392 72.4519 672.64C71.7681 669.66 72.3425 666.561 72.3242 663.526C72.306 660.492 71.4763 657.092 68.9051 655.452C67.298 654.593 65.4931 654.172 63.6716 654.231C60.6445 654.121 57.2892 654.422 55.2013 656.637C52.621 659.371 53.2957 664.009 55.5295 667.044C57.7634 670.079 61.1734 671.975 64.3098 674.071C66.6896 675.665 69.1057 677.525 70.5737 680.049C70.7667 680.387 70.9226 680.744 71.0387 681.115H90.0307C94.2997 678.961 98.2589 676.242 101.802 673.032Z" fill="#5BC2D9"/>
<g opacity="0.4">
<path opacity="0.4" d="M565.99 643.996C582.426 643.996 595.75 641.744 595.75 638.966C595.75 636.187 582.426 633.935 565.99 633.935C549.554 633.935 536.23 636.187 536.23 638.966C536.23 641.744 549.554 643.996 565.99 643.996Z" fill="#5BC2D9"/>
<path opacity="0.4" d="M578.29 630.736C579.647 629.63 580.638 628.141 581.134 626.462C581.499 624.758 580.77 622.716 579.147 622.097C577.323 621.404 575.381 622.662 573.904 623.919C572.427 625.177 570.74 626.653 568.807 626.38C569.807 625.478 570.554 624.331 570.975 623.053C571.395 621.774 571.475 620.408 571.205 619.089C571.123 618.548 570.893 618.041 570.54 617.622C569.528 616.538 567.695 617.002 566.492 617.85C562.644 620.584 561.568 625.788 561.541 630.49C561.158 628.795 561.486 627.027 561.477 625.286C561.468 623.546 560.984 621.641 559.517 620.675C558.6 620.188 557.572 619.949 556.535 619.982C554.803 619.919 552.888 620.092 551.694 621.349C550.226 622.926 550.609 625.56 551.885 627.291C553.162 629.023 555.104 630.107 556.9 631.301C558.33 632.158 559.551 633.322 560.474 634.71C560.584 634.903 560.672 635.108 560.738 635.32H571.588C574.019 634.102 576.273 632.56 578.29 630.736Z" fill="#5BC2D9"/>
</g>
<g opacity="0.4">
<path opacity="0.4" d="M110.181 587.466C126.617 587.466 139.941 585.214 139.941 582.435C139.941 579.657 126.617 577.405 110.181 577.405C93.7447 577.405 80.4207 579.657 80.4207 582.435C80.4207 585.214 93.7447 587.466 110.181 587.466Z" fill="#5BC2D9"/>
<path opacity="0.4" d="M122.489 574.206C123.849 573.1 124.839 571.606 125.325 569.923C125.69 568.227 124.969 566.186 123.337 565.566C121.514 564.874 119.572 566.131 118.104 567.389C116.636 568.647 114.931 570.123 113.007 569.85C114.003 568.945 114.747 567.798 115.168 566.52C115.588 565.243 115.67 563.878 115.405 562.559C115.319 562.016 115.089 561.507 114.739 561.083C113.727 560.007 111.895 560.472 110.682 561.32C106.834 564.054 105.759 569.248 105.74 573.951C105.348 572.256 105.677 570.488 105.667 568.747C105.658 567.006 105.184 565.102 103.716 564.19C102.799 563.696 101.767 563.454 100.726 563.489C99.0024 563.425 97.0786 563.598 95.8933 564.865C94.4253 566.441 94.8083 569.075 96.0848 570.807C97.3612 572.538 99.3033 573.613 101.09 574.816C102.524 575.668 103.746 576.833 104.664 578.225C104.774 578.42 104.865 578.624 104.938 578.836H115.779C118.214 577.601 120.471 576.044 122.489 574.206Z" fill="#5BC2D9"/>
</g>
<path d="M265.153 70.9277H218.571V117.488H265.153V70.9277Z" fill="#D6D8E0"/>
<path d="M397.122 74.2542H299.527V83.1215H397.122V74.2542Z" fill="#D6D8E0"/>
<path d="M460.335 89.7742H299.527V98.6415H460.335V89.7742Z" fill="#D6D8E0"/>
<path d="M460.335 105.294H299.527V114.162H460.335V105.294Z" fill="#D6D8E0"/>
<path d="M265.509 156.284H218.927V202.844H265.509V156.284Z" fill="#D6D8E0"/>
<path d="M397.478 159.61H299.882V168.477H397.478V159.61Z" fill="#D6D8E0"/>
<path d="M460.69 175.13H299.882V183.998H460.69V175.13Z" fill="#D6D8E0"/>
<path d="M460.69 190.641H299.882V199.509H460.69V190.641Z" fill="#D6D8E0"/>
<path d="M265.865 241.64H219.282V288.2H265.865V241.64Z" fill="#D6D8E0"/>
<path d="M397.842 244.957H300.247V253.824H397.842V244.957Z" fill="#D6D8E0"/>
<path d="M461.055 260.477H300.247V269.345H461.055V260.477Z" fill="#D6D8E0"/>
<path d="M461.055 275.997H300.247V284.865H461.055V275.997Z" fill="#D6D8E0"/>
<path d="M266.22 326.987H219.638V373.547H266.22V326.987Z" fill="#D6D8E0"/>
<path d="M398.198 330.313H300.603V339.181H398.198V330.313Z" fill="#D6D8E0"/>
<path d="M461.411 345.833H300.603V354.701H461.411V345.833Z" fill="#D6D8E0"/>
<path d="M461.411 361.354H300.603V370.221H461.411V361.354Z" fill="#D6D8E0"/>
<path d="M266.585 412.343H220.003V458.903H266.585V412.343Z" fill="#D6D8E0"/>
<path d="M398.554 415.669H300.958V424.537H398.554V415.669Z" fill="#D6D8E0"/>
<path d="M461.766 431.189H300.958V440.057H461.766V431.189Z" fill="#D6D8E0"/>
<path d="M461.766 446.709H300.958V455.577H461.766V446.709Z" fill="#D6D8E0"/>
<path d="M266.94 497.699H220.358V544.259H266.94V497.699Z" fill="#D6D8E0"/>
<path d="M398.909 501.025H301.314V509.893H398.909V501.025Z" fill="#D6D8E0"/>
<path d="M462.122 516.545H301.314V525.413H462.122V516.545Z" fill="#D6D8E0"/>
<path d="M462.122 532.066H301.314V540.933H462.122V532.066Z" fill="#D6D8E0"/>
<path d="M267.296 583.055H220.714V629.616H267.296V583.055Z" fill="#D6D8E0"/>
<path d="M399.265 586.381H301.669V595.249H399.265V586.381Z" fill="#D6D8E0"/>
<path d="M462.477 601.902H301.669V610.769H462.477V601.902Z" fill="#D6D8E0"/>
<path d="M462.477 617.422H301.669V626.289H462.477V617.422Z" fill="#D6D8E0"/>
<path d="M539.038 211.32H142.01V309.972H539.038V211.32Z" fill="url(#paint1_linear)"/>
<path d="M537.926 213.543H144.226V307.767H537.926V213.543Z" fill="white"/>
<path d="M266.776 237.375H220.194V283.935H266.776V237.375Z" fill="#5BC2D9"/>
<g opacity="0.5">
<path opacity="0.5" d="M398.754 240.701H301.159V249.569H398.754V240.701Z" fill="#5BC2D9"/>
<path opacity="0.5" d="M461.967 256.221H301.159V265.089H461.967V256.221Z" fill="#5BC2D9"/>
<path opacity="0.5" d="M461.967 271.741H301.159V280.609H461.967V271.741Z" fill="#5BC2D9"/>
</g>
<path d="M283.489 297.432C281.009 294.981 276.888 294.17 273.906 295.974C271.59 297.368 270.314 299.966 269.147 302.417C267.442 306.063 264.944 309.471 264.178 313.408C262.072 324.262 253.428 332.692 249.963 343.181C248.723 346.927 248.14 350.946 246.179 354.364C245.253 355.86 244.217 357.285 243.079 358.629C238.593 364.284 234.626 370.333 231.227 376.7C229.257 377.083 227.507 378.751 225.829 380.054C223.679 381.725 221.189 382.904 218.535 383.508C217.466 383.634 216.442 384.009 215.544 384.602C214.286 385.65 214.113 387.536 213.092 388.803C212.35 389.633 211.408 390.261 210.356 390.626C210.356 390.307 210.311 389.988 210.302 389.66C210.256 387.974 210.229 386.279 210.229 384.584C213.169 381.123 214.778 376.728 214.768 372.188C214.758 367.648 213.129 363.261 210.174 359.813C210.246 357.174 210.597 354.55 211.222 351.985C211.542 350.736 211.496 349.205 210.484 348.394C209.982 348.002 209.335 347.857 208.797 347.483C208.039 346.842 207.419 346.055 206.974 345.168C205.623 343.255 203.635 341.886 201.366 341.307C199.096 340.727 196.695 340.975 194.592 342.006C191.3 343.737 189.304 347.2 186.386 349.552C184.891 350.755 183.167 351.657 181.672 352.869C178.68 355.479 176.552 358.937 175.572 362.784C174.614 366.617 174.058 370.538 173.913 374.486C173.757 375.67 173.804 376.872 174.05 378.04C174.345 379.018 174.797 379.942 175.39 380.774C178.169 385.294 182.074 389.015 186.723 391.574C186.742 391.807 186.742 392.042 186.723 392.275C186.723 392.64 186.605 392.995 186.523 393.36L185.994 393.214C184.043 392.777 181.937 392.831 180.186 391.856C177.195 390.179 176.293 386.087 173.43 384.21C173.186 384.052 172.93 383.915 172.664 383.8C172.462 378.616 171.472 373.494 169.728 368.608C168.889 366.275 167.859 363.896 167.987 361.408C168.096 359.102 169.199 356.979 170.184 354.892C173.621 347.693 176.028 340.055 178.39 332.446C179.903 327.664 181.423 322.88 182.949 318.092C184.433 316.991 185.778 315.711 186.951 314.283C189.384 311.452 190.99 308.005 191.592 304.322C191.881 302.484 191.804 300.607 191.364 298.798C190.924 296.99 190.131 295.287 189.03 293.787C188.544 293.07 187.91 292.465 187.171 292.012C186.432 291.559 185.605 291.27 184.745 291.162C183.989 291.178 183.244 291.349 182.556 291.662C181.868 291.975 181.251 292.425 180.742 292.985C179.231 294.708 178.067 296.707 177.314 298.872C175.819 302.399 174.305 306.063 174.451 309.89C174.569 313.062 175.755 316.607 173.904 319.186C167.841 327.634 163.264 337.349 158.459 346.59C157.244 348.797 156.202 351.094 155.34 353.461C154.179 357.301 153.628 361.298 153.708 365.309C153.663 372.827 154.693 380.309 155.714 387.764C156.179 391.127 156.772 394.699 158.367 397.607C157.322 401.209 156.773 404.938 156.735 408.688C156.693 409.555 156.83 410.42 157.137 411.231C157.673 412.175 158.353 413.029 159.152 413.765C160.22 414.978 161.017 416.406 161.489 417.953C161.961 419.499 162.096 421.129 161.887 422.732C161.619 425.752 161.894 428.795 162.698 431.718C164.522 439.811 166.345 447.894 167.804 456.051C168.151 457.568 168.267 459.129 168.151 460.68C167.868 462.886 166.646 464.982 166.911 467.197C167.172 468.222 167.367 469.263 167.494 470.313C167.435 471.115 167.25 471.902 166.947 472.646C164.868 478.688 159.279 492.541 159.343 498.938L160.802 498.592C159.334 506.894 155.897 514.832 154.091 523.107C152.839 529.136 152.27 535.287 152.395 541.443C152.516 544.208 152.467 546.978 152.249 549.737C151.967 552.188 151.338 554.585 150.991 557.027C150.599 560.302 150.453 563.601 150.554 566.897C150.459 572.077 150.764 577.257 151.465 582.39C152.86 591.139 150.417 599.833 149.751 608.664C149.414 614.842 148.714 620.995 147.654 627.091C147.153 629.661 146.524 632.213 146.177 634.81C145.156 642.52 146.642 650.467 145.037 658.077C144.281 661.64 142.931 665.641 144.919 668.685C145.548 669.641 146.451 670.389 147.134 671.309C147.509 671.745 147.765 672.27 147.876 672.834C147.988 673.398 147.953 673.981 147.773 674.526C147.381 675.365 146.469 675.912 146.241 676.805C145.876 678.208 147.344 679.356 148.657 679.958L149.031 680.104C148.945 680.584 148.964 681.077 149.087 681.549C149.21 682.02 149.433 682.46 149.742 682.838C150.522 683.573 151.491 684.078 152.541 684.296L169.755 689.509C173.594 690.675 177.77 691.824 181.608 690.876C181.695 691.422 181.932 691.933 182.292 692.352C183.072 693.087 184.041 693.592 185.091 693.81L202.178 698.987C206.572 700.317 211.396 701.63 215.617 699.825C216.827 699.327 217.888 698.527 218.699 697.501C219.369 696.516 219.815 695.395 220.004 694.219C220.193 693.043 220.121 691.839 219.793 690.693C219.579 689.528 218.998 688.461 218.134 687.65C216.964 686.836 215.582 686.383 214.158 686.346C212.943 686.31 211.752 685.998 210.675 685.435C210.35 685.224 210.079 684.94 209.882 684.606C210.867 683.634 211.821 682.625 212.745 681.58C211.997 681.325 211.733 680.249 211.66 679.466C210.575 667.855 214.952 656.509 216.611 644.972C217.449 639.183 217.596 633.315 217.049 627.492C216.848 625.296 216.547 623.108 216.456 620.903C216.027 609.42 221.516 598.375 221.325 586.883C221.234 581.506 224.06 576.202 225.437 570.998C226.64 566.387 226.677 561.557 226.704 556.781L226.923 519.179C226.923 514.094 226.923 508.89 225.3 504.088C224.481 501.416 224.257 498.598 224.644 495.831C229.285 493.78 233.679 490.745 238.639 491.274C239.961 487.765 238.393 476.073 237.153 472.528C232.278 458.58 231.332 443.561 234.418 429.112C235.539 423.926 233.998 418.412 235.247 413.245C235.477 412.032 235.938 410.875 236.606 409.837C236.945 409.319 237.409 408.896 237.956 408.608C238.503 408.319 239.115 408.175 239.733 408.187C239.733 405.025 239.67 401.808 239.46 398.6C241.474 396.956 243.191 394.981 244.538 392.758C247.274 388.202 248.833 383.071 250.72 378.113C254.066 369.364 258.634 361.153 262.473 352.596C266.311 344.038 266.685 334.679 269.767 325.82C271.464 320.942 274.973 316.902 279.568 314.538C281.392 313.627 283.334 312.97 284.656 311.476C285.657 310.23 286.271 308.719 286.425 307.129C286.709 305.396 286.592 303.621 286.084 301.94C285.575 300.259 284.687 298.717 283.489 297.432ZM176.812 673.934C177.186 673.524 177.551 673.114 177.897 672.667C176.749 672.485 175.344 671.646 175.317 670.48C175.399 669.311 175.651 668.159 176.065 667.062C176.604 665.084 176.692 663.01 176.32 660.993C176.065 659.58 175.591 658.259 175.299 656.819C175.021 655.258 174.838 653.681 174.752 652.098C174.26 646.416 173.147 640.806 171.433 635.366C169.783 630.089 172.044 624.749 172.627 619.254C172.91 616.647 172.782 613.959 173.694 611.507C174.232 610.049 175.117 608.773 175.654 607.297C176.904 603.916 176.165 600.152 175.399 596.625C180.797 586.846 182.584 575.181 184.617 564.172C185.76 557.993 186.903 551.817 188.045 545.645C188.547 542.911 189.103 540.031 190.781 537.825C192.556 546.005 193.255 554.381 192.859 562.741C192.65 565.169 192.68 567.611 192.951 570.032C193.37 572.684 194.473 575.19 195.112 577.797C196.534 583.547 195.704 589.589 196.023 595.504C196.142 597.892 196.452 600.279 196.552 602.667C196.999 613.23 193.461 623.5 189.969 633.48C187.827 639.595 187.352 646.548 186.322 652.955C185.356 659.088 184.398 665.231 183.906 671.419C183.76 673.305 183.642 675.246 183.414 677.16C182.827 677.03 182.233 676.936 181.636 676.878C180.421 676.841 179.23 676.53 178.153 675.966C177.508 675.442 177.04 674.733 176.812 673.934Z" fill="url(#paint2_linear)"/>
<path d="M214.177 686.438C215.599 686.478 216.979 686.927 218.152 687.732C219.014 688.538 219.595 689.598 219.811 690.757C220.139 691.897 220.21 693.095 220.021 694.265C219.832 695.436 219.387 696.55 218.717 697.529C217.905 698.546 216.843 699.337 215.635 699.825C211.414 701.648 206.591 700.326 202.196 699.005L184.982 693.819C183.933 693.605 182.963 693.103 182.183 692.37C181.71 691.734 181.448 690.965 181.435 690.172C181.422 689.379 181.658 688.602 182.11 687.95C183.036 686.665 184.297 685.659 185.757 685.043C191.118 682.437 197.154 681.835 203.08 681.726C205.269 681.68 207.42 681.206 208.907 682.892C209.691 683.804 209.554 684.77 210.73 685.544C211.796 686.1 212.975 686.406 214.177 686.438Z" fill="#3F3D56"/>
<path d="M181.654 676.969C183.076 677 184.458 677.447 185.629 678.254C186.486 679.063 187.066 680.122 187.289 681.279C187.617 682.419 187.689 683.617 187.499 684.787C187.31 685.958 186.865 687.072 186.194 688.051C185.383 689.071 184.321 689.865 183.113 690.356C178.891 692.179 174.068 690.848 169.673 689.527L152.459 684.341C151.409 684.131 150.439 683.628 149.66 682.892C149.187 682.256 148.925 681.487 148.912 680.694C148.899 679.901 149.135 679.124 149.587 678.472C150.511 677.185 151.773 676.179 153.234 675.565C158.595 672.959 164.622 672.357 170.512 672.248C172.691 672.248 174.852 671.728 176.338 673.414C177.122 674.326 176.986 675.301 178.162 676.066C179.242 676.628 180.436 676.936 181.654 676.969Z" fill="#3F3D56"/>
<path d="M196.607 490.244C186.465 489.225 176.264 488.939 166.081 489.387C165.409 489.379 164.74 489.484 164.103 489.697C161.86 490.609 161.513 493.543 161.294 495.949C160.437 505.673 156.143 514.741 154 524.283C152.747 530.275 152.178 536.389 152.304 542.509C152.423 545.244 152.375 547.983 152.158 550.712C151.876 553.154 151.247 555.533 150.9 558.002C150.508 561.255 150.362 564.533 150.463 567.808C150.369 572.949 150.673 578.089 151.374 583.183C152.769 591.877 150.326 600.498 149.66 609.283C149.322 615.422 148.622 621.536 147.563 627.592C147.062 630.144 146.433 632.677 146.086 635.257C145.065 642.921 146.551 650.822 144.946 658.377C144.19 661.913 142.84 665.887 144.828 668.912C145.457 669.869 146.36 670.607 147.043 671.519C147.417 671.951 147.673 672.473 147.784 673.034C147.896 673.595 147.861 674.175 147.682 674.718C147.29 675.547 146.378 676.094 146.15 676.978C145.785 678.372 147.253 679.52 148.566 680.113C158.459 684.569 171.214 681.425 177.888 672.868C176.74 672.685 175.335 671.856 175.308 670.699C175.39 669.535 175.642 668.39 176.056 667.299C176.596 665.333 176.683 663.271 176.311 661.266C176.056 659.872 175.582 658.532 175.29 657.12C175.012 655.571 174.829 654.006 174.743 652.435C174.251 646.789 173.138 641.215 171.424 635.812C169.774 630.572 172.035 625.268 172.618 619.8C172.901 617.221 172.773 614.542 173.685 612.109C174.223 610.659 175.108 609.374 175.645 607.925C176.895 604.563 176.156 600.835 175.39 597.327C180.788 587.603 182.575 576.019 184.608 565.083C185.751 558.947 186.894 552.811 188.036 546.674C188.538 543.94 189.094 541.106 190.772 538.91C192.548 547.037 193.247 555.362 192.85 563.671C192.644 566.065 192.674 568.473 192.942 570.861C193.361 573.495 194.464 575.983 195.103 578.58C196.525 584.285 195.695 590.291 196.014 596.169C196.133 598.539 196.443 600.908 196.543 603.287C196.99 613.776 193.452 623.983 189.96 633.889C187.818 639.968 187.343 646.876 186.313 653.237C185.347 659.334 184.389 665.431 183.897 671.583C183.45 677.233 183.259 683.348 179.739 687.786C182.949 689.873 186.277 691.997 190.033 692.717C194.423 693.401 198.915 692.535 202.734 690.265C206.524 687.993 209.913 685.111 212.763 681.735C212.016 681.48 211.751 680.404 211.678 679.63C210.593 668.101 214.97 656.846 216.629 645.363C217.467 639.611 217.614 633.78 217.067 627.993C216.866 625.815 216.565 623.646 216.474 621.459C216.046 610.049 221.535 599.067 221.343 587.657C221.252 582.317 224.078 577.04 225.455 571.873C226.659 567.316 226.695 562.495 226.723 557.756L226.941 520.391C226.941 515.333 226.941 510.166 225.318 505.391C223.313 499.658 225.601 493.06 225.948 487C216.474 489.991 206.505 491.093 196.607 490.244Z" fill="#3F3D56"/>
<path d="M229.12 382.898C232.953 375.064 237.634 367.674 243.079 360.861C244.214 359.529 245.25 358.116 246.179 356.633C248.14 353.243 248.723 349.242 249.963 345.524C253.428 335.098 262.071 326.723 264.178 315.941C264.944 312.032 267.442 308.651 269.147 305.005C270.314 302.563 271.59 299.993 273.906 298.626C276.888 296.803 281.009 297.651 283.489 300.084C284.682 301.355 285.567 302.883 286.074 304.55C286.582 306.217 286.699 307.979 286.416 309.699C286.267 311.282 285.651 312.785 284.647 314.018C283.325 315.504 281.346 316.178 279.559 317.071C274.97 319.402 271.458 323.415 269.758 328.272C266.712 337.075 266.329 346.389 262.464 354.874C258.598 363.358 254.057 371.515 250.711 380.2C248.824 385.13 247.301 390.225 244.529 394.781C241.757 399.338 237.399 403.157 232.166 403.84C232.173 400.547 231.656 397.274 230.634 394.143C229.531 390.525 227.461 386.251 229.12 382.898Z" fill="#A0616A"/>
<path d="M172.664 389.696C172.897 383.253 171.894 376.825 169.71 370.759C168.871 368.435 167.841 366.074 167.968 363.605C168.078 361.317 169.181 359.203 170.166 357.134C173.603 349.98 176.01 342.389 178.372 334.824L182.93 320.571C184.413 319.477 185.757 318.207 186.933 316.789C189.362 313.98 190.967 310.555 191.574 306.892C191.862 305.064 191.785 303.197 191.345 301.399C190.905 299.601 190.112 297.909 189.012 296.421C188.524 295.707 187.89 295.106 187.151 294.658C186.412 294.21 185.585 293.925 184.727 293.823C183.97 293.836 183.224 294.005 182.536 294.319C181.847 294.632 181.23 295.084 180.724 295.646C179.213 297.356 178.049 299.343 177.296 301.497C175.8 304.996 174.287 308.642 174.433 312.433C174.551 315.586 175.737 319.104 173.886 321.665C167.822 330.058 163.245 339.709 158.44 348.886C157.226 351.078 156.184 353.36 155.322 355.712C154.159 359.533 153.608 363.513 153.69 367.505C153.645 374.978 154.675 382.405 155.696 389.815C156.334 394.444 157.191 399.493 160.702 402.573C164.358 397.935 168.023 393.36 172.664 389.696Z" fill="#A0616A"/>
<path d="M195.868 393.259C206.317 393.259 214.787 384.793 214.787 374.349C214.787 363.905 206.317 355.439 195.868 355.439C185.42 355.439 176.949 363.905 176.949 374.349C176.949 384.793 185.42 393.259 195.868 393.259Z" fill="#A0616A"/>
<path d="M186.678 394.262C186.222 397.688 184.389 400.741 182.602 403.694C181.517 405.517 180.149 407.458 178.043 407.658C183.52 410.538 189.275 412.852 195.221 414.566C197.245 415.245 199.368 415.586 201.503 415.578C203.31 415.443 205.079 414.99 206.727 414.238C210.334 412.658 213.534 410.278 216.084 407.278C218.634 404.277 220.466 400.736 221.443 396.923C219.091 396.986 216.738 396.806 214.423 396.385C213.128 396.148 211.733 395.766 210.976 394.699C210.451 393.771 210.204 392.711 210.265 391.646C210.174 388.493 210.174 385.34 210.265 382.187C205.617 381.887 200.954 382.459 196.516 383.873C194.692 384.465 192.869 385.185 190.999 385.65C189.851 385.932 186.687 385.65 185.839 386.315C184.553 387.327 187.015 391.938 186.678 394.262Z" fill="#A0616A"/>
<path d="M195.02 405.754C194.81 403.269 193.824 400.913 192.201 399.02C190.577 397.126 188.4 395.79 185.976 395.201C184.025 394.772 181.918 394.818 180.168 393.852C177.177 392.184 176.275 388.12 173.412 386.251C170.549 384.383 166.464 385.422 163.966 387.791C161.467 390.161 160.2 393.515 159.179 396.796C157.65 401.243 156.823 405.901 156.726 410.602C156.684 411.465 156.821 412.328 157.127 413.136C157.667 414.075 158.346 414.926 159.142 415.66C160.21 416.86 161.007 418.275 161.479 419.81C161.951 421.345 162.087 422.963 161.878 424.555C161.611 427.56 161.885 430.588 162.689 433.495C164.513 441.524 166.336 449.562 167.795 457.664C168.137 459.157 168.254 460.693 168.142 462.221C167.859 464.408 166.637 466.495 166.902 468.682C167.163 469.704 167.358 470.742 167.485 471.79C167.426 472.582 167.241 473.36 166.938 474.095C164.859 480.11 159.27 493.871 159.334 500.223C169.044 497.735 183.359 497.18 193.379 497.143C196.141 497.105 198.902 497.227 201.649 497.508C208.241 498.209 214.988 500.132 221.38 498.355C227.306 496.706 232.567 491.976 238.703 492.577C240.025 489.087 238.457 477.467 237.217 473.949C232.342 460.099 231.396 445.171 234.482 430.816C235.603 425.658 234.062 420.19 235.311 415.059C235.539 413.851 236.001 412.699 236.67 411.669C237.009 411.153 237.475 410.732 238.022 410.445C238.569 410.158 239.18 410.014 239.797 410.028C239.911 401.79 239.147 393.563 237.518 385.486C236.907 382.615 235.64 379.225 232.749 378.733C230.142 378.295 227.944 380.492 225.856 382.114C223.701 383.769 221.212 384.938 218.562 385.54C217.494 385.663 216.47 386.034 215.572 386.625C214.313 387.664 214.14 389.541 213.119 390.808C211.295 393.077 207.22 392.877 205.925 395.492C205.634 396.273 205.402 397.074 205.232 397.889C204.621 399.439 203.58 400.782 202.232 401.762C200.194 403.667 197.717 405.038 195.02 405.754Z" fill="#5BC2D9"/>
<path d="M211.241 354.245C211.56 352.997 211.514 351.511 210.502 350.673C210.001 350.281 209.353 350.135 208.815 349.761C208.057 349.124 207.437 348.34 206.992 347.456C205.628 345.551 203.632 344.192 201.36 343.62C199.088 343.047 196.687 343.299 194.583 344.33C191.291 346.052 189.294 349.497 186.377 351.83C184.882 353.033 183.158 353.926 181.663 355.12C178.674 357.711 176.546 361.15 175.563 364.981C174.607 368.791 174.054 372.692 173.913 376.618C173.757 377.796 173.803 378.992 174.05 380.154C174.348 381.117 174.8 382.025 175.39 382.843C178.39 387.4 182.365 391.546 187.334 393.888C192.303 396.23 198.348 396.622 203.254 394.171C203.745 393.964 204.169 393.623 204.475 393.187C204.756 392.522 204.82 391.785 204.658 391.081C204.398 388.298 204.953 385.5 206.253 383.025C207.165 381.202 208.524 379.635 209.262 377.739C209.932 375.626 210.222 373.411 210.119 371.196C210.192 365.482 209.8 359.768 211.241 354.245Z" fill="#2D293D"/>
<path d="M266.585 237.931H220.003V284.491H266.585V237.931Z" fill="#5BC2D9"/>
<path d="M249.59 277.592C248.915 278.893 247.795 279.908 246.435 280.454C245.631 280.748 244.784 280.908 243.927 280.928C243.002 280.996 242.073 280.881 241.192 280.59C240.019 280.129 239.012 279.326 238.302 278.285C237.601 277.244 237.037 276.116 236.624 274.931C236.347 274.34 236.231 273.686 236.287 273.035C236.644 272.992 236.988 272.879 237.301 272.702C237.614 272.525 237.889 272.289 238.11 272.006C238.242 271.721 238.313 271.412 238.321 271.099C238.329 270.786 238.273 270.474 238.156 270.183C238.101 270.001 238.047 269.827 237.983 269.663C237.846 269.262 237.372 268.506 237.7 268.169C238.028 267.832 238.794 267.841 239.095 267.704C239.987 267.171 240.939 266.746 241.931 266.437C242.83 266.318 243.744 266.376 244.62 266.61C244.74 266.63 244.855 266.673 244.958 266.738C245.073 266.834 245.158 266.96 245.204 267.103C245.459 267.722 245.605 268.406 245.806 269.044C245.981 269.713 246.326 270.325 246.809 270.821C247.225 271.174 247.696 271.457 248.204 271.659L249.425 272.215C249.64 272.3 249.835 272.427 250 272.589C250.156 272.809 250.251 273.067 250.273 273.336C250.5 274.791 250.26 276.281 249.59 277.592Z" fill="#A0616A"/>
<path opacity="0.1" d="M245.797 269.071C244.826 270.078 243.549 270.736 242.166 270.942C240.782 271.149 239.369 270.891 238.147 270.21C238.092 270.028 238.037 269.855 237.974 269.691C237.837 269.29 237.363 268.533 237.691 268.196C238.019 267.859 238.785 267.868 239.086 267.731C239.978 267.199 240.93 266.774 241.922 266.465C242.821 266.345 243.735 266.404 244.611 266.638C244.731 266.657 244.846 266.701 244.949 266.765C245.064 266.861 245.149 266.987 245.195 267.13C245.45 267.777 245.596 268.433 245.797 269.071Z" fill="black"/>
<path d="M241.238 270.739C244.732 270.739 247.565 267.907 247.565 264.414C247.565 260.921 244.732 258.09 241.238 258.09C237.743 258.09 234.91 260.921 234.91 264.414C234.91 267.907 237.743 270.739 241.238 270.739Z" fill="#A0616A"/>
<path d="M260.431 284.482H230.652C229.74 282.45 228.92 280.408 227.999 278.376C228.097 277.892 228.279 277.43 228.537 277.009C228.669 276.803 228.849 276.634 229.062 276.514C229.275 276.395 229.515 276.33 229.759 276.325C230.023 276.325 230.324 276.426 230.516 276.234C230.707 276.043 230.643 275.888 230.78 275.76C230.917 275.633 231.245 275.633 231.5 275.651C231.774 275.66 232.046 275.6 232.291 275.478C232.536 275.355 232.747 275.174 232.904 274.949C233.002 274.779 233.122 274.623 233.26 274.484C233.5 274.368 233.76 274.3 234.026 274.284C234.764 274.12 235.202 273.373 235.758 272.908C235.892 272.757 236.066 272.648 236.261 272.595C236.455 272.542 236.66 272.546 236.852 272.607C236.942 272.653 237.019 272.719 237.08 272.798C237.23 273.028 237.332 273.285 237.381 273.555C237.711 275.068 238.551 276.423 239.761 277.392C240.403 277.877 241.147 278.213 241.936 278.374C242.725 278.535 243.541 278.518 244.322 278.323C245.104 278.128 245.832 277.761 246.453 277.248C247.074 276.735 247.573 276.09 247.912 275.359C248.353 274.258 248.605 273.09 248.66 271.905C248.66 271.842 248.66 271.805 248.66 271.75C249.031 271.658 249.417 271.649 249.792 271.723C250.167 271.797 250.521 271.953 250.83 272.179C251.435 272.642 252.082 273.048 252.763 273.391C253.574 273.71 254.586 273.71 255.142 274.302C255.379 274.539 255.543 274.867 255.844 275.013C256.031 275.086 256.228 275.132 256.428 275.15C256.937 275.287 257.408 275.539 257.805 275.887C258.201 276.234 258.513 276.668 258.716 277.155C259.376 278.617 259.807 280.173 259.993 281.766L260.431 284.482Z" fill="#F86D70"/>
<path d="M236.87 254.152C236.43 254.509 236.056 254.941 235.767 255.428C235.224 256.324 234.466 257.069 233.561 257.597C233.181 257.73 232.836 257.945 232.549 258.226C232.408 258.44 232.317 258.683 232.284 258.937C232.099 259.821 232.004 260.722 232.002 261.625C231.968 262.08 232.043 262.536 232.22 262.956C232.403 263.339 232.749 263.667 232.813 264.086C232.826 264.418 232.789 264.75 232.704 265.07C232.661 265.238 232.67 265.416 232.73 265.578C232.791 265.741 232.899 265.882 233.041 265.982C233.206 266.04 233.377 266.08 233.551 266.1C234.463 266.301 234.773 267.376 234.91 268.26C235.22 268.26 235.357 267.886 235.43 267.595L236.341 263.357C236.451 262.901 236.615 262.364 237.08 262.209C237.399 262.14 237.728 262.14 238.047 262.209C239.305 262.318 240.362 261.343 241.593 261.069C241.99 260.995 242.394 260.971 242.797 260.997C243.763 260.997 244.894 261.443 245.104 262.345C245.104 262.491 245.158 262.673 245.295 262.746C245.435 262.787 245.584 262.787 245.724 262.746C246.334 262.683 246.699 263.375 246.882 263.94L247.52 266.009C247.62 266.319 247.784 266.692 248.122 266.729C248.276 266.728 248.425 266.671 248.54 266.569C248.656 266.467 248.731 266.326 248.751 266.173C248.764 265.864 248.721 265.555 248.623 265.262C248.322 263.913 248.787 262.528 249.07 261.17C249.352 259.812 249.398 258.253 248.45 257.205C248.103 256.832 247.647 256.549 247.328 256.148C247.009 255.747 246.863 255.319 246.553 254.945C245.315 253.859 243.77 253.184 242.131 253.013C240.303 252.852 238.468 253.249 236.87 254.152Z" fill="#3F3D56"/>
<g opacity="0.1">
<path opacity="0.1" d="M248.158 265.745C247.821 265.745 247.656 265.335 247.556 265.025L246.918 262.956C246.736 262.391 246.371 261.699 245.76 261.753C245.62 261.794 245.471 261.794 245.331 261.753C245.195 261.68 245.176 261.507 245.14 261.352C244.93 260.441 243.8 260.049 242.833 260.003C242.43 259.976 242.025 260.004 241.63 260.085C240.399 260.35 239.341 261.325 238.083 261.216C237.763 261.157 237.436 261.157 237.116 261.216C236.651 261.38 236.487 261.908 236.378 262.373C236.059 263.786 235.749 265.198 235.466 266.602C235.393 266.893 235.256 267.249 234.946 267.267C234.81 266.356 234.5 265.307 233.588 265.107C233.413 265.091 233.241 265.051 233.077 264.989C232.956 264.923 232.862 264.816 232.813 264.688C232.813 264.815 232.758 264.952 232.74 265.08C232.697 265.248 232.707 265.425 232.767 265.588C232.827 265.75 232.935 265.891 233.077 265.991C233.243 266.05 233.414 266.089 233.588 266.109C234.5 266.31 234.81 267.385 234.946 268.269C235.256 268.269 235.393 267.896 235.466 267.604C235.785 266.191 236.095 264.779 236.378 263.366C236.487 262.911 236.651 262.373 237.116 262.218C237.435 262.15 237.764 262.15 238.083 262.218C239.341 262.327 240.399 261.352 241.63 261.079C242.026 261.004 242.431 260.98 242.833 261.006C243.8 261.006 244.93 261.452 245.14 262.355C245.14 262.501 245.195 262.683 245.331 262.756C245.471 262.796 245.62 262.796 245.76 262.756C246.371 262.692 246.736 263.385 246.918 263.95L247.556 266.018C247.656 266.328 247.821 266.702 248.158 266.738C248.312 266.737 248.461 266.681 248.577 266.578C248.693 266.476 248.767 266.335 248.787 266.182C248.806 265.936 248.775 265.688 248.696 265.453C248.644 265.548 248.565 265.626 248.47 265.678C248.374 265.73 248.266 265.753 248.158 265.745Z" fill="black"/>
<path opacity="0.1" d="M232.813 263.12C232.749 262.701 232.403 262.373 232.22 261.99C232.101 261.732 232.029 261.454 232.011 261.17C232.011 261.325 232.011 261.471 232.011 261.626C231.977 262.08 232.052 262.536 232.229 262.956C232.375 263.266 232.631 263.539 232.758 263.868C232.823 263.624 232.841 263.371 232.813 263.12Z" fill="black"/>
<path opacity="0.1" d="M249.106 260.195C248.744 261.375 248.569 262.605 248.586 263.84C248.705 262.943 248.879 262.055 249.106 261.179C249.258 260.51 249.31 259.822 249.261 259.138C249.232 259.493 249.181 259.846 249.106 260.195Z" fill="black"/>
</g>
<path d="M233.032 284.482H225.929C226.243 282.57 226.803 280.708 227.598 278.941C227.66 278.759 227.763 278.594 227.899 278.458C227.928 278.426 227.962 278.398 227.999 278.376C228.209 278.212 228.5 278.148 228.728 277.993C228.956 277.838 228.984 277.674 229.193 277.61C229.982 277.592 230.768 277.722 231.509 277.993C231.719 278.017 231.925 278.069 232.12 278.148C232.582 278.404 232.928 278.829 233.087 279.333C233.688 280.964 233.232 282.732 233.032 284.482Z" fill="#F86D70"/>
</g>
<defs>
<linearGradient id="paint0_linear" x1="340.885" y1="676.896" x2="340.885" y2="0.708933" gradientUnits="userSpaceOnUse">
<stop stop-color="#808080" stop-opacity="0.25"/>
<stop offset="0.54" stop-color="#808080" stop-opacity="0.12"/>
<stop offset="1" stop-color="#808080" stop-opacity="0.1"/>
</linearGradient>
<linearGradient id="paint1_linear" x1="148130" y1="33690" x2="148130" y2="23009.9" gradientUnits="userSpaceOnUse">
<stop stop-color="#808080" stop-opacity="0.25"/>
<stop offset="0.54" stop-color="#808080" stop-opacity="0.12"/>
<stop offset="1" stop-color="#808080" stop-opacity="0.1"/>
</linearGradient>
<linearGradient id="paint2_linear" x1="59644.3" y1="249843" x2="81983" y2="249843" gradientUnits="userSpaceOnUse">
<stop stop-color="#808080" stop-opacity="0.25"/>
<stop offset="0.54" stop-color="#808080" stop-opacity="0.12"/>
<stop offset="1" stop-color="#808080" stop-opacity="0.1"/>
</linearGradient>
<clipPath id="clip0">
<rect width="620" height="700" fill="white" transform="translate(0.677734 0.708984)"/>
</clipPath>
</defs>
</svg>
