<svg width="456" height="535" viewBox="0 0 456 535" fill="none" xmlns="http://www.w3.org/2000/svg">
<g clip-path="url(#clip0)">
<g opacity="0.5">
<path opacity="0.5" d="M258.979 1.26331L10.2051 1.86612C7.49424 1.87156 4.89652 2.95047 2.9829 4.86567C1.06927 6.78088 -0.00363737 9.37565 9.26537e-06 12.0796L1.13314 469.482C1.13674 470.821 1.40481 472.147 1.92203 473.383C2.43925 474.619 3.1955 475.741 4.14759 476.686C5.09968 477.631 6.22896 478.379 7.47098 478.888C8.713 479.397 10.0434 479.658 11.3863 479.654L260.16 479.051C262.871 479.044 265.468 477.963 267.381 476.047C269.293 474.13 270.364 471.535 270.359 468.831L269.205 11.4289C269.196 8.72965 268.114 6.14408 266.198 4.23864C264.281 2.33321 261.685 1.26329 258.979 1.26331Z" fill="url(#paint0_linear)"/>
<path opacity="0.5" d="M256.216 0.873148L12.9983 1.46594C7.82495 1.47855 3.64135 5.672 3.65399 10.8323L4.76354 463.774C4.77618 468.934 8.98028 473.107 14.1536 473.094L257.371 472.501C262.545 472.489 266.728 468.295 266.716 463.135L265.606 10.1938C265.593 5.03355 261.389 0.860539 256.216 0.873148Z" fill="white"/>
<path opacity="0.5" d="M259.329 131.565L259.068 22.6488C259.061 20.0175 258.007 17.4967 256.137 15.6406C254.267 13.7845 251.735 12.7449 249.097 12.7504L200.441 12.8668C199.696 17.87 197.182 22.4423 193.351 25.7567C189.521 29.0711 184.628 30.9088 179.557 30.9374L89.078 31.1566C84.0071 31.153 79.105 29.3394 75.2582 26.0438C71.4114 22.7482 68.8739 18.1883 68.1048 13.1888L20.1767 13.3052C17.5387 13.3125 15.0116 14.3643 13.1508 16.2294C11.2899 18.0945 10.2477 20.6203 10.2532 23.2516L10.521 133.086L11.2971 451.383C11.3098 454.014 12.3694 456.533 14.2432 458.385C16.1169 460.238 18.6512 461.272 21.2892 461.261L250.209 460.706C252.839 460.692 255.356 459.639 257.21 457.78C259.065 455.92 260.106 453.403 260.105 450.78L259.329 131.565Z" fill="#BBBBBB"/>
<path opacity="0.5" d="M160.065 18.2502L104.445 19.083C103.686 19.0943 103.081 19.7168 103.092 20.4734L103.105 21.3706C103.117 22.1272 103.741 22.7313 104.499 22.7199L160.12 21.8871C160.878 21.8758 161.484 21.2533 161.472 20.4967L161.459 19.5995C161.447 18.8429 160.823 18.2388 160.065 18.2502Z" fill="#DBDBDB"/>
<path opacity="0.5" d="M173.899 21.6811C175.108 21.663 176.074 20.67 176.056 19.4633C176.038 18.2566 175.043 17.2931 173.833 17.3112C172.623 17.3293 171.657 18.3222 171.675 19.5289C171.693 20.7356 172.689 21.6992 173.899 21.6811Z" fill="#DBDBDB"/>
<path opacity="0.5" d="M236.028 71.7914H114.069V81.4911H236.028V71.7914Z" fill="#E0E0E0"/>
<path opacity="0.5" d="M236.028 91.1909H114.069V100.891H236.028V91.1909Z" fill="#E0E0E0"/>
<path opacity="0.5" d="M53.628 105.425C66.349 105.425 76.6615 95.09 76.6615 82.3406C76.6615 69.5912 66.349 59.2557 53.628 59.2557C40.9069 59.2557 30.5945 69.5912 30.5945 82.3406C30.5945 95.09 40.9069 105.425 53.628 105.425Z" fill="#F5F5F5"/>
<path opacity="0.5" d="M63.5516 98.5H43.5741C42.6157 98.5073 41.6731 98.7452 40.8266 99.1936C39.9801 99.642 39.2547 100.288 38.7119 101.076C43.2008 103.644 48.2802 105.01 53.4553 105.039C58.6304 105.067 63.7247 103.759 68.242 101.24C67.7348 100.444 67.0447 99.7807 66.229 99.3042C65.4133 98.8277 64.4954 98.552 63.5516 98.5Z" fill="#5BC2D9"/>
<path opacity="0.5" d="M43.7388 82.9297C43.7388 82.9297 40.8133 91.4238 39.2131 90.6292C39.2131 90.6292 54.6237 103.905 68.2282 90.6292C66.591 87.8385 64.6243 85.2535 62.3702 82.9297H43.7388Z" fill="#333333"/>
<path opacity="0.5" d="M53.6143 93.5542C59.9369 93.5542 65.0624 88.4417 65.0624 82.1351C65.0624 75.8285 59.9369 70.7159 53.6143 70.7159C47.2917 70.7159 42.1663 75.8285 42.1663 82.1351C42.1663 88.4417 47.2917 93.5542 53.6143 93.5542Z" fill="#333333"/>
<path opacity="0.1" d="M49.59 94.5406H57.5769V97.6369C57.5769 98.6071 57.1905 99.5375 56.5028 100.223C55.815 100.909 54.8823 101.295 53.9096 101.295H53.2229C52.2503 101.295 51.3175 100.909 50.6298 100.223C49.942 99.5375 49.5557 98.6071 49.5557 97.6369V94.5406H49.59Z" fill="black"/>
<path opacity="0.5" d="M50.4348 94.3488H56.7391C56.9632 94.3488 57.178 94.4375 57.3364 94.5955C57.4948 94.7535 57.5838 94.9679 57.5838 95.1913V97.4656C57.5838 98.4357 57.1975 99.3661 56.5097 100.052C55.822 100.738 54.8892 101.124 53.9166 101.124H53.2299C52.262 101.116 51.3363 100.728 50.6545 100.042C49.9727 99.3573 49.5901 98.431 49.5901 97.4656V95.2119C49.5873 95.0995 49.6072 94.9877 49.6484 94.8831C49.6896 94.7785 49.7514 94.6832 49.8301 94.6028C49.9088 94.5223 50.0029 94.4584 50.1067 94.4148C50.2106 94.3712 50.3221 94.3487 50.4348 94.3488Z" fill="#FDA57D"/>
<path opacity="0.1" d="M49.6106 95.4996C52.1872 96.4523 55.0208 96.4523 57.5975 95.4996V94.5748H49.6106V95.4996Z" fill="black"/>
<path opacity="0.5" d="M53.6143 96.0339C59.9369 96.0339 65.0624 90.9214 65.0624 84.6148C65.0624 78.3082 59.9369 73.1957 53.6143 73.1957C47.2917 73.1957 42.1663 78.3082 42.1663 84.6148C42.1663 90.9214 47.2917 96.0339 53.6143 96.0339Z" fill="#FDA57D"/>
<path opacity="0.5" d="M42.6746 80.2787H64.4994C64.4994 80.2787 62.6383 71.49 54.3836 72.0585C46.1289 72.6271 42.6746 80.2787 42.6746 80.2787Z" fill="#333333"/>
<path opacity="0.5" d="M42.4067 86.1219C42.9946 86.1219 43.4712 85.2294 43.4712 84.1285C43.4712 83.0276 42.9946 82.1351 42.4067 82.1351C41.8189 82.1351 41.3423 83.0276 41.3423 84.1285C41.3423 85.2294 41.8189 86.1219 42.4067 86.1219Z" fill="#FDA57D"/>
<path opacity="0.5" d="M64.7671 86.1219C65.355 86.1219 65.8315 85.2294 65.8315 84.1285C65.8315 83.0276 65.355 82.1351 64.7671 82.1351C64.1792 82.1351 63.7026 83.0276 63.7026 84.1285C63.7026 85.2294 64.1792 86.1219 64.7671 86.1219Z" fill="#FDA57D"/>
<path opacity="0.1" d="M42.6746 80.5801H64.4994C64.4994 80.5801 62.6383 71.7914 54.3836 72.3599C46.1289 72.9285 42.6746 80.5801 42.6746 80.5801Z" fill="black"/>
<path opacity="0.5" d="M236.028 145.677H114.069V155.376H236.028V145.677Z" fill="#E0E0E0"/>
<path opacity="0.5" d="M236.028 165.076H114.069V174.776H236.028V165.076Z" fill="#E0E0E0"/>
<path opacity="0.5" d="M53.628 179.311C66.349 179.311 76.6615 168.975 76.6615 156.226C76.6615 143.476 66.349 133.141 53.628 133.141C40.9069 133.141 30.5945 143.476 30.5945 156.226C30.5945 168.975 40.9069 179.311 53.628 179.311Z" fill="#E0E0E0"/>
<path opacity="0.5" d="M236.028 219.562H114.069V229.262H236.028V219.562Z" fill="#E0E0E0"/>
<path opacity="0.5" d="M236.028 238.961H114.069V248.661H236.028V238.961Z" fill="#E0E0E0"/>
<path opacity="0.5" d="M53.628 253.196C66.349 253.196 76.6615 242.861 76.6615 230.111C76.6615 217.362 66.349 207.026 53.628 207.026C40.9069 207.026 30.5945 217.362 30.5945 230.111C30.5945 242.861 40.9069 253.196 53.628 253.196Z" fill="#E0E0E0"/>
<path opacity="0.5" d="M236.028 293.447H114.069V303.147H236.028V293.447Z" fill="#E0E0E0"/>
<path opacity="0.5" d="M236.028 312.847H114.069V322.546H236.028V312.847Z" fill="#E0E0E0"/>
<path opacity="0.5" d="M53.628 327.081C66.349 327.081 76.6615 316.746 76.6615 303.996C76.6615 291.247 66.349 280.911 53.628 280.911C40.9069 280.911 30.5945 291.247 30.5945 303.996C30.5945 316.746 40.9069 327.081 53.628 327.081Z" fill="#E0E0E0"/>
<path opacity="0.5" d="M236.028 367.332H114.069V377.032H236.028V367.332Z" fill="#E0E0E0"/>
<path opacity="0.5" d="M236.028 386.732H114.069V396.432H236.028V386.732Z" fill="#E0E0E0"/>
<path opacity="0.5" d="M53.628 400.966C66.349 400.966 76.6615 390.631 76.6615 377.882C76.6615 365.132 66.349 354.797 53.628 354.797C40.9069 354.797 30.5945 365.132 30.5945 377.882C30.5945 390.631 40.9069 400.966 53.628 400.966Z" fill="#E0E0E0"/>
</g>
<path d="M419.094 58.7283L170.313 59.3311C167.602 59.3384 165.005 60.419 163.093 62.3355C161.181 64.252 160.11 66.8475 160.115 69.5515L161.248 524.714C161.252 526.053 161.52 527.379 162.037 528.615C162.554 529.851 163.31 530.973 164.263 531.918C165.215 532.863 166.344 533.611 167.586 534.12C168.828 534.629 170.158 534.89 171.501 534.886L420.289 534.283C422.995 534.272 425.587 533.192 427.496 531.279C429.405 529.366 430.475 526.776 430.474 524.077L429.34 68.9144C429.339 67.5744 429.072 66.2478 428.556 65.0106C428.04 63.7733 427.285 62.6496 426.333 61.7036C425.382 60.7577 424.253 60.008 423.011 59.4975C421.768 58.987 420.438 58.7256 419.094 58.7283Z" fill="url(#paint1_linear)"/>
<path d="M416.328 56.0989L173.111 56.6916C167.937 56.7043 163.754 60.8977 163.767 66.058L164.876 518.999C164.889 524.16 169.093 528.333 174.266 528.32L417.484 527.727C422.657 527.715 426.841 523.521 426.828 518.361L425.719 65.4195C425.706 60.2593 421.502 56.0862 416.328 56.0989Z" fill="white"/>
<path d="M419.444 187.538L419.183 77.8469C419.176 75.2156 418.122 72.6949 416.252 70.8387C414.382 68.9826 411.85 67.943 409.212 67.9485L360.542 68.065C359.798 73.0681 357.283 77.6404 353.452 80.9548C349.622 84.2692 344.729 86.1069 339.658 86.1355L249.186 86.3547C244.115 86.3511 239.213 84.5375 235.366 81.2419C231.52 77.9464 228.982 73.3864 228.213 68.3869L180.285 68.5034C177.647 68.5106 175.12 69.5624 173.259 71.4275C171.398 73.2926 170.356 75.8184 170.361 78.4497L170.629 188.284" fill="#FAFAFA"/>
<path d="M170.629 188.291L171.405 506.588C171.412 509.22 172.467 511.74 174.337 513.596C176.207 515.453 178.739 516.492 181.377 516.487L410.297 515.932C412.935 515.925 415.462 514.873 417.323 513.008C419.184 511.143 420.226 508.617 420.22 505.986L419.438 186.771" fill="#FAFAFA"/>
<path d="M241.268 113.584H192.633V162.096H241.268V113.584Z" fill="#E0E0E0"/>
<g opacity="0.5">
<path opacity="0.5" d="M456 202.396H134.856V311.36H456V202.396Z" fill="url(#paint2_linear)"/>
</g>
<path d="M452.182 206.875H138.682V307.627H452.182V206.875Z" fill="white"/>
<path d="M385.67 244.188H263.711V253.888H385.67V244.188Z" fill="#5BC2D9"/>
<path d="M385.67 263.594H263.711V273.294H385.67V263.594Z" fill="#5BC2D9"/>
<path d="M385.67 351.659H263.711V361.359H385.67V351.659Z" fill="#E0E0E0"/>
<path d="M385.67 371.059H263.711V380.759H385.67V371.059Z" fill="#EEEEEE"/>
<path d="M351.999 152.39H297.382V169.556H351.999V152.39Z" fill="#5BC2D9"/>
<path d="M203.27 277.822C215.991 277.822 226.304 267.487 226.304 254.737C226.304 241.988 215.991 231.652 203.27 231.652C190.549 231.652 180.237 241.988 180.237 254.737C180.237 267.487 190.549 277.822 203.27 277.822Z" fill="#F5F5F5"/>
<path d="M213.194 270.897H193.209C192.251 270.904 191.308 271.142 190.462 271.59C189.615 272.039 188.89 272.684 188.347 273.472C192.836 276.041 197.915 277.406 203.091 277.435C208.266 277.464 213.36 276.155 217.877 273.637C217.371 272.842 216.682 272.179 215.867 271.702C215.053 271.226 214.136 270.95 213.194 270.897Z" fill="#5BC2D9"/>
<path d="M193.381 255.333C193.381 255.333 190.456 263.827 188.855 263.033C188.855 263.033 204.266 276.308 217.871 263.033C216.233 260.242 214.267 257.657 212.013 255.333H193.381Z" fill="#333333"/>
<path d="M203.256 265.958C209.579 265.958 214.705 260.845 214.705 254.539C214.705 248.232 209.579 243.119 203.256 243.119C196.934 243.119 191.808 248.232 191.808 254.539C191.808 260.845 196.934 265.958 203.256 265.958Z" fill="#333333"/>
<path opacity="0.1" d="M199.232 266.944H207.219V270.04C207.219 271.01 206.833 271.941 206.145 272.627C205.457 273.313 204.524 273.698 203.552 273.698H202.865C201.892 273.698 200.96 273.313 200.272 272.627C199.584 271.941 199.198 271.01 199.198 270.04V266.944H199.232Z" fill="black"/>
<path d="M200.077 266.752H206.381C206.605 266.752 206.82 266.841 206.978 266.999C207.137 267.157 207.226 267.371 207.226 267.595V269.849C207.227 270.33 207.132 270.807 206.948 271.252C206.764 271.697 206.493 272.101 206.152 272.442C205.81 272.782 205.405 273.052 204.959 273.236C204.513 273.42 204.034 273.514 203.552 273.513H202.865C201.892 273.513 200.96 273.128 200.272 272.442C199.584 271.756 199.198 270.826 199.198 269.855V267.602C199.198 267.491 199.22 267.382 199.262 267.279C199.305 267.177 199.367 267.084 199.445 267.006C199.524 266.928 199.617 266.866 199.719 266.823C199.822 266.781 199.932 266.759 200.042 266.759L200.077 266.752Z" fill="#FDA57D"/>
<path opacity="0.1" d="M199.246 267.883C201.822 268.835 204.656 268.835 207.233 267.883V266.903H199.246V267.883Z" fill="black"/>
<path d="M203.256 268.43C209.579 268.43 214.705 263.318 214.705 257.011C214.705 250.705 209.579 245.592 203.256 245.592C196.934 245.592 191.808 250.705 191.808 257.011C191.808 263.318 196.934 268.43 203.256 268.43Z" fill="#FDA57D"/>
<path d="M192.289 252.682H214.114C214.114 252.682 212.253 243.894 203.998 244.462C195.743 245.031 192.289 252.682 192.289 252.682Z" fill="#333333"/>
<path d="M192.049 258.519C192.637 258.519 193.113 257.626 193.113 256.525C193.113 255.424 192.637 254.532 192.049 254.532C191.461 254.532 190.984 255.424 190.984 256.525C190.984 257.626 191.461 258.519 192.049 258.519Z" fill="#FDA57D"/>
<path d="M214.402 258.519C214.99 258.519 215.467 257.626 215.467 256.525C215.467 255.424 214.99 254.532 214.402 254.532C213.814 254.532 213.338 255.424 213.338 256.525C213.338 257.626 213.814 258.519 214.402 258.519Z" fill="#FDA57D"/>
<path opacity="0.1" d="M192.289 252.977H214.114C214.114 252.977 212.253 244.188 203.998 244.757C195.743 245.325 192.289 252.977 192.289 252.977Z" fill="black"/>
<path d="M218.234 386.04C230.955 386.04 241.268 375.705 241.268 362.955C241.268 350.206 230.955 339.87 218.234 339.87C205.513 339.87 195.201 350.206 195.201 362.955C195.201 375.705 205.513 386.04 218.234 386.04Z" fill="#E0E0E0"/>
<path d="M218.234 474.852C230.955 474.852 241.268 464.516 241.268 451.767C241.268 439.017 230.955 428.682 218.234 428.682C205.513 428.682 195.201 439.017 195.201 451.767C195.201 464.516 205.513 474.852 218.234 474.852Z" fill="#E0E0E0"/>
<path d="M385.67 437.484H263.711V447.184H385.67V437.484Z" fill="#E0E0E0"/>
<path d="M385.67 456.884H263.711V466.584H385.67V456.884Z" fill="#EEEEEE"/>
<path d="M385.67 113.584H263.711V123.284H385.67V113.584Z" fill="#E0E0E0"/>
<path d="M385.67 132.99H263.711V142.69H385.67V132.99Z" fill="#E0E0E0"/>
<path d="M320.176 73.4837L264.555 74.3165C263.797 74.3278 263.191 74.9503 263.203 75.7069L263.216 76.6042C263.228 77.3607 263.852 77.9648 264.61 77.9535L320.23 77.1207C320.989 77.1093 321.595 76.4868 321.583 75.7302L321.57 74.833C321.558 74.0764 320.934 73.4723 320.176 73.4837Z" fill="#DBDBDB"/>
<path d="M334.01 76.9214C335.219 76.9033 336.185 75.9104 336.167 74.7037C336.149 73.497 335.154 72.5334 333.944 72.5516C332.734 72.5697 331.768 73.5626 331.786 74.7693C331.804 75.976 332.8 76.9395 334.01 76.9214Z" fill="#DBDBDB"/>
</g>
<defs>
<linearGradient id="paint0_linear" x1="30.5553" y1="488.577" x2="238.909" y2="-8.04027" gradientUnits="userSpaceOnUse">
<stop stop-color="#808080" stop-opacity="0.25"/>
<stop offset="0.54" stop-color="#808080" stop-opacity="0.12"/>
<stop offset="1" stop-color="#808080" stop-opacity="0.1"/>
</linearGradient>
<linearGradient id="paint1_linear" x1="150958" y1="407864" x2="344969" y2="147738" gradientUnits="userSpaceOnUse">
<stop stop-color="#808080" stop-opacity="0.25"/>
<stop offset="0.54" stop-color="#808080" stop-opacity="0.12"/>
<stop offset="1" stop-color="#808080" stop-opacity="0.1"/>
</linearGradient>
<linearGradient id="paint2_linear" x1="138284" y1="49589.5" x2="138284" y2="32257.6" gradientUnits="userSpaceOnUse">
<stop stop-color="#808080" stop-opacity="0.25"/>
<stop offset="0.54" stop-color="#808080" stop-opacity="0.12"/>
<stop offset="1" stop-color="#808080" stop-opacity="0.1"/>
</linearGradient>
<clipPath id="clip0">
<rect width="456" height="534" fill="white" transform="translate(0 0.87915)"/>
</clipPath>
</defs>
</svg>
