<svg width="633" height="587" viewBox="0 0 633 587" fill="none" xmlns="http://www.w3.org/2000/svg">
<g clip-path="url(#clip0)">
<g opacity="0.5">
<path opacity="0.5" d="M442.04 35.7095L175.616 36.3588C174.177 36.362 172.754 36.6486 171.427 37.2024C170.1 37.7561 168.894 38.5661 167.88 39.586C166.866 40.6059 166.062 41.8158 165.516 43.1465C164.969 44.4772 164.69 45.9026 164.694 47.3413L165.904 545.874C165.907 547.313 166.194 548.737 166.747 550.065C167.301 551.393 168.11 552.598 169.13 553.613C170.149 554.628 171.359 555.432 172.689 555.979C174.019 556.525 175.443 556.805 176.882 556.801L443.306 556.151C444.745 556.148 446.169 555.861 447.496 555.307C448.824 554.753 450.03 553.942 451.044 552.921C452.058 551.9 452.862 550.69 453.408 549.358C453.954 548.026 454.232 546.6 454.227 545.161L453.017 46.6279C453.013 45.1898 452.726 43.7667 452.172 42.4398C451.618 41.1128 450.808 39.908 449.789 38.8941C448.769 37.8803 447.56 37.0772 446.231 36.5308C444.901 35.9844 443.477 35.7053 442.04 35.7095Z" fill="url(#paint0_linear)"/>
</g>
<path d="M438.181 42.516L179.505 43.1483C173.469 43.1631 168.588 48.0705 168.603 54.1094L169.787 538.837C169.801 544.875 174.706 549.759 180.743 549.744L439.418 549.112C445.454 549.097 450.335 544.19 450.32 538.151L449.137 53.4236C449.122 47.3847 444.217 42.5012 438.181 42.516Z" fill="white"/>
<path opacity="0.4" d="M379.348 55.3578C378.55 60.7312 375.857 65.6416 371.755 69.2012C367.654 72.7608 362.414 74.7345 356.985 74.7656L260.086 74.998C254.661 74.9883 249.417 73.0382 245.303 69.4997C241.189 65.9612 238.474 61.0676 237.65 55.7025L186.329 55.8308C184.929 55.8339 183.544 56.1128 182.252 56.6516C180.961 57.1903 179.788 57.9783 178.8 58.9706C177.813 59.9628 177.03 61.14 176.498 62.4347C175.965 63.7295 175.693 65.1165 175.696 66.5167L176.81 526.394C176.813 527.795 177.092 529.182 177.631 530.474C178.17 531.767 178.958 532.941 179.951 533.929C180.943 534.917 182.121 535.7 183.416 536.232C184.711 536.764 186.098 537.036 187.499 537.032L432.689 536.439C434.089 536.436 435.474 536.157 436.765 535.618C438.057 535.079 439.23 534.291 440.218 533.299C441.205 532.307 441.987 531.13 442.52 529.835C443.053 528.54 443.325 527.153 443.322 525.753L442.208 65.8753C442.205 64.4752 441.926 63.0894 441.388 61.7971C440.849 60.5047 440.062 59.3311 439.07 58.3433C438.078 57.3555 436.901 56.5728 435.607 56.0399C434.313 55.5071 432.927 55.2344 431.527 55.2376L379.348 55.3578Z" fill="#5BC2D9"/>
<path d="M335.978 61.1864L276.674 62.077C275.789 62.0903 275.082 62.8188 275.096 63.7042L275.106 64.4095C275.119 65.2949 275.848 66.0019 276.733 65.9886L336.036 65.098C336.921 65.0847 337.628 64.3562 337.615 63.4708L337.604 62.7654C337.591 61.8801 336.863 61.1731 335.978 61.1864Z" fill="#DBDBDB"/>
<path d="M350.912 64.8667C352.209 64.8472 353.244 63.7799 353.225 62.4829C353.205 61.1858 352.138 60.1501 350.842 60.1696C349.545 60.1891 348.51 61.2563 348.53 62.5534C348.549 63.8504 349.616 64.8861 350.912 64.8667Z" fill="#DBDBDB"/>
<g opacity="0.5">
<path opacity="0.5" d="M342.201 404.978C342.206 391.296 338.67 377.846 331.937 365.937C325.204 354.028 315.504 344.066 303.781 337.021C292.058 329.975 278.711 326.087 265.04 325.733C251.369 325.38 237.839 328.574 225.768 335.005C213.697 341.435 203.496 350.883 196.158 362.428C188.819 373.973 184.594 387.222 183.893 400.886C183.192 414.55 186.039 428.163 192.157 440.399C198.274 452.636 207.455 463.079 218.804 470.712L218.852 471.065C221.44 473.545 224.493 475.488 227.835 476.781L227.939 476.428C231.649 479.635 247.266 484.709 265.206 484.661H265.599C276.961 484.661 289.301 482.657 300.15 476.781C300.15 476.781 300.246 476.572 300.39 476.179C303.138 474.888 305.66 473.161 307.858 471.065C307.901 470.76 307.944 470.461 307.986 470.167C318.542 462.888 327.171 453.151 333.131 441.795C339.091 430.439 342.204 417.804 342.201 404.978Z" fill="url(#paint1_linear)"/>
</g>
<path d="M262.987 481.855C305.421 481.855 339.821 447.439 339.821 404.986C339.821 362.532 305.421 328.116 262.987 328.116C220.552 328.116 186.152 362.532 186.152 404.986C186.152 447.439 220.552 481.855 262.987 481.855Z" fill="#F5F5F5"/>
<path d="M233.636 436.595C233.636 436.595 215.327 438.094 220.175 471.458C222.682 473.871 225.642 475.762 228.884 477.021L239.181 442.158L233.636 436.595Z" fill="#FDA57D"/>
<path d="M293.043 436.595C293.043 436.595 311.352 438.094 306.504 471.458C303.997 473.871 301.037 475.762 297.794 477.021L287.498 442.142L293.043 436.595Z" fill="#FDA57D"/>
<path d="M234.429 381.915C234.429 381.915 225.719 407.279 220.968 404.874C220.968 404.874 266.817 444.499 307.305 404.874C307.305 404.874 300.174 392.192 289.878 381.891L234.429 381.915Z" fill="#333333"/>
<path d="M263.82 413.612C282.632 413.612 297.882 398.354 297.882 379.534C297.882 360.713 282.632 345.456 263.82 345.456C245.008 345.456 229.758 360.713 229.758 379.534C229.758 398.354 245.008 413.612 263.82 413.612Z" fill="#333333"/>
<path opacity="0.1" d="M292.69 436.595H233.292L227.747 460.371C227.747 460.371 224.494 471.378 228.548 476.22C232.602 481.062 270.439 492.068 298.259 477.021C300.686 470.684 300.967 463.726 299.06 457.213C295.855 446.118 298.259 456.411 298.259 456.411L292.69 436.595Z" fill="black"/>
<path opacity="0.1" d="M293.483 436.595H234.077L228.532 460.371C228.532 460.371 225.279 471.378 229.333 476.22C233.388 481.062 271.224 492.068 299.044 477.021C301.471 470.684 301.752 463.726 299.845 457.213C296.64 446.118 299.044 456.411 299.044 456.411L293.483 436.595Z" fill="black"/>
<path d="M293.043 436.595H233.636L228.091 460.371C228.091 460.371 224.838 471.378 228.893 476.22C232.947 481.062 270.783 492.068 298.603 477.021C301.03 470.684 301.312 463.726 299.405 457.213C296.2 446.118 298.603 456.411 298.603 456.411L293.043 436.595Z" fill="#5BC2D9"/>
<path opacity="0.1" d="M251.857 416.866H275.639V439.873C275.639 440.91 275.435 441.937 275.038 442.895C274.642 443.853 274.06 444.723 273.327 445.457C272.594 446.19 271.724 446.772 270.767 447.168C269.809 447.565 268.783 447.769 267.746 447.769H259.734C257.64 447.769 255.633 446.938 254.153 445.457C252.673 443.976 251.841 441.967 251.841 439.873V416.866H251.857Z" fill="black"/>
<path d="M251.857 415.992H275.639V438.999C275.639 440.036 275.435 441.063 275.038 442.021C274.642 442.979 274.06 443.85 273.327 444.583C272.594 445.316 271.724 445.898 270.767 446.294C269.809 446.691 268.783 446.896 267.746 446.896H259.734C257.64 446.896 255.633 446.064 254.153 444.583C252.673 443.102 251.841 441.094 251.841 438.999V415.992H251.857Z" fill="#FDA57D"/>
<path opacity="0.1" d="M251.905 419.415C259.565 422.279 267.996 422.301 275.671 419.479V416.562H251.905V419.415Z" fill="black"/>
<path d="M263.82 421.011C282.632 421.011 297.882 405.753 297.882 386.933C297.882 368.112 282.632 352.855 263.82 352.855C245.008 352.855 229.758 368.112 229.758 386.933C229.758 405.753 245.008 421.011 263.82 421.011Z" fill="#FDA57D"/>
<path d="M231.264 373.986H296.216C296.216 373.986 290.671 347.749 266.12 349.424C241.569 351.1 231.264 373.986 231.264 373.986Z" fill="#333333"/>
<path d="M230.471 391.422C232.219 391.422 233.636 388.762 233.636 385.482C233.636 382.201 232.219 379.542 230.471 379.542C228.723 379.542 227.306 382.201 227.306 385.482C227.306 388.762 228.723 391.422 230.471 391.422Z" fill="#FDA57D"/>
<path d="M297.001 391.422C298.749 391.422 300.166 388.762 300.166 385.482C300.166 382.201 298.749 379.542 297.001 379.542C295.253 379.542 293.836 382.201 293.836 385.482C293.836 388.762 295.253 391.422 297.001 391.422Z" fill="#FDA57D"/>
<path opacity="0.1" d="M231.264 374.868H296.216C296.216 374.868 290.671 348.63 266.12 350.305C241.569 351.981 231.264 374.868 231.264 374.868Z" fill="black"/>
<g opacity="0.5">
<path opacity="0.5" d="M277.995 195.925C277.99 182.244 281.526 168.794 288.259 156.885C294.991 144.976 304.691 135.014 316.415 127.968C328.138 120.923 341.484 117.035 355.155 116.681C368.827 116.328 382.356 119.522 394.427 125.952C406.498 132.383 416.699 141.83 424.038 153.376C431.376 164.921 435.602 178.17 436.303 191.834C437.004 205.498 434.157 219.111 428.039 231.347C421.921 243.584 412.741 254.027 401.391 261.66L401.343 262.013C398.762 264.516 395.708 266.481 392.361 267.793L392.257 267.44C388.547 270.646 372.93 275.721 354.989 275.673H354.597C343.235 275.673 330.895 273.669 320.046 267.793C320.046 267.793 319.949 267.584 319.805 267.191C317.057 265.9 314.535 264.173 312.337 262.077C312.295 261.772 312.252 261.473 312.209 261.179C301.645 253.893 293.01 244.146 287.049 232.778C281.089 221.41 277.981 208.763 277.995 195.925Z" fill="url(#paint2_linear)"/>
</g>
<path d="M357.201 272.803C399.635 272.803 434.035 238.388 434.035 195.934C434.035 153.48 399.635 119.064 357.201 119.064C314.766 119.064 280.366 153.48 280.366 195.934C280.366 238.388 314.766 272.803 357.201 272.803Z" fill="#F5F5F5"/>
<path d="M327.081 225.209C327.081 225.209 308.772 226.709 313.619 260.073C316.128 262.48 319.088 264.365 322.329 265.62L332.626 230.757L327.081 225.209Z" fill="#BE7C5E"/>
<path d="M386.479 225.209C386.479 225.209 404.789 226.709 399.941 260.073C397.432 262.48 394.472 264.365 391.231 265.62L380.935 230.757L386.479 225.209Z" fill="#BE7C5E"/>
<path d="M327.866 170.529C327.866 170.529 326.456 174.634 324.461 179.347C320.102 189.769 325.078 229.618 335.502 233.859C347.201 238.669 362.585 241.683 378.571 235.855C392.457 230.789 396.744 185.352 386.92 174.329C385.766 173.03 384.564 171.74 383.306 170.489L327.866 170.529Z" fill="#333333"/>
<path d="M357.257 202.235C376.069 202.235 391.319 186.978 391.319 168.157C391.319 149.336 376.069 134.079 357.257 134.079C338.445 134.079 323.195 149.336 323.195 168.157C323.195 186.978 338.445 202.235 357.257 202.235Z" fill="#333333"/>
<path opacity="0.1" d="M386.135 225.209H326.728L321.184 248.986C321.184 248.986 317.93 259.993 321.985 264.835C326.039 269.676 363.875 280.683 391.696 265.636C394.122 259.299 394.404 252.34 392.497 245.828C389.292 234.733 391.696 245.026 391.696 245.026L386.135 225.209Z" fill="black"/>
<path opacity="0.1" d="M386.92 225.209H327.513L321.969 248.986C321.969 248.986 318.715 259.993 322.77 264.835C326.824 269.676 364.661 280.683 392.481 265.636C394.908 259.299 395.189 252.34 393.282 245.828C390.077 234.733 392.481 245.026 392.481 245.026L386.92 225.209Z" fill="black"/>
<path d="M386.479 225.209H327.081L321.536 248.986C321.536 248.986 318.283 259.993 322.337 264.835C326.392 269.676 364.228 280.683 392.048 265.636C394.475 259.299 394.756 252.34 392.85 245.828C389.645 234.733 392.048 245.026 392.048 245.026L386.479 225.209Z" fill="#F55F44"/>
<path opacity="0.1" d="M345.294 205.489H369.06V228.496C369.06 230.591 368.228 232.599 366.748 234.08C365.268 235.561 363.26 236.393 361.167 236.393H353.154C351.061 236.393 349.054 235.561 347.573 234.08C346.093 232.599 345.262 230.591 345.262 228.496V205.489H345.294Z" fill="black"/>
<path d="M345.294 204.607H369.06V227.615C369.06 229.709 368.228 231.717 366.748 233.198C365.268 234.679 363.26 235.511 361.167 235.511H353.154C351.061 235.511 349.054 234.679 347.573 233.198C346.093 231.717 345.262 229.709 345.262 227.615V204.607H345.294Z" fill="#BE7C5E"/>
<path opacity="0.1" d="M345.35 208.031C353.009 210.894 361.441 210.916 369.116 208.095V205.177H345.35V208.031Z" fill="black"/>
<path d="M357.257 209.626C376.069 209.626 391.319 194.369 391.319 175.548C391.319 156.727 376.069 141.47 357.257 141.47C338.445 141.47 323.195 156.727 323.195 175.548C323.195 194.369 338.445 209.626 357.257 209.626Z" fill="#BE7C5E"/>
<path d="M324.701 162.609H389.653C389.653 162.609 384.108 136.372 359.557 138.047C335.006 139.723 324.701 162.609 324.701 162.609Z" fill="#333333"/>
<path d="M323.908 180.037C325.656 180.037 327.073 177.378 327.073 174.097C327.073 170.816 325.656 168.157 323.908 168.157C322.16 168.157 320.743 170.816 320.743 174.097C320.743 177.378 322.16 180.037 323.908 180.037Z" fill="#BE7C5E"/>
<path d="M390.438 180.037C392.186 180.037 393.603 177.378 393.603 174.097C393.603 170.816 392.186 168.157 390.438 168.157C388.69 168.157 387.273 170.816 387.273 174.097C387.273 177.378 388.69 180.037 390.438 180.037Z" fill="#BE7C5E"/>
<path opacity="0.1" d="M324.701 163.491H389.653C389.653 163.491 384.108 137.254 359.557 138.929C335.006 140.604 324.701 163.491 324.701 163.491Z" fill="black"/>
<g opacity="0.5">
<path opacity="0.5" d="M4.00635 127.193V241.603H184.181C184.181 241.603 197.482 267.793 220.351 275.408C220.351 275.408 213.051 256.858 220.671 241.603H270.831V127.193H4.00635Z" fill="url(#paint3_linear)"/>
</g>
<path d="M11.2178 131.113V239.334H191.505C191.505 239.334 191.505 260.979 213.139 268.194C213.139 268.194 205.928 253.764 213.139 239.334H263.62V131.113H11.2178Z" fill="white"/>
<path d="M177.082 152.757H32.8523V167.187H177.082V152.757Z" fill="#5BC2D9"/>
<path d="M227.562 174.401H32.8523V188.831H227.562V174.401Z" fill="#5BC2D9"/>
<path d="M205.928 196.046H32.8523V210.475H205.928V196.046Z" fill="#5BC2D9"/>
<g opacity="0.5">
<path opacity="0.5" d="M616.983 347.645V462.055H436.816C436.816 462.055 423.515 488.244 400.638 495.86C400.638 495.86 407.938 477.31 400.318 462.055H350.158V347.645H616.983Z" fill="url(#paint4_linear)"/>
</g>
<path d="M609.771 351.564V459.786H429.484C429.484 459.786 429.484 481.43 407.85 488.645C407.85 488.645 415.061 474.216 407.85 459.786H357.369V351.564H609.771Z" fill="white"/>
<path d="M531.246 373.208H387.016V387.638H531.246V373.208Z" fill="#5BC2D9"/>
<path d="M581.726 394.853H387.016V409.283H581.726V394.853Z" fill="#5BC2D9"/>
<path d="M560.092 416.498H387.016V430.927H560.092V416.498Z" fill="#5BC2D9"/>
<g opacity="0.5">
<path opacity="0.5" d="M69.7109 572.817H67.3071V586.445H69.7109V572.817Z" fill="#47E6B1"/>
<path opacity="0.5" d="M75.3198 580.834V578.429H61.6981V580.834H75.3198Z" fill="#47E6B1"/>
</g>
<g opacity="0.5">
<path opacity="0.5" d="M509.612 154.36H507.208V167.988H509.612V154.36Z" fill="#47E6B1"/>
<path opacity="0.5" d="M515.22 162.377V159.972H501.599V162.377H515.22Z" fill="#47E6B1"/>
</g>
<g opacity="0.5">
<path opacity="0.5" d="M560.893 491.05H558.489V504.678H560.893V491.05Z" fill="#47E6B1"/>
<path opacity="0.5" d="M566.502 499.066V496.661H552.88V499.066H566.502Z" fill="#47E6B1"/>
</g>
<g opacity="0.5">
<path opacity="0.5" d="M409.452 0.445312H407.048V14.0732H409.452V0.445312Z" fill="#47E6B1"/>
<path opacity="0.5" d="M415.061 8.46181V6.05688L401.439 6.05688V8.46181H415.061Z" fill="#47E6B1"/>
</g>
<path opacity="0.5" d="M207.29 571.463C206.634 571.168 206.109 570.643 205.814 569.987C205.518 569.332 205.473 568.59 205.687 567.903C205.722 567.797 205.743 567.687 205.752 567.575C205.772 567.258 205.689 566.942 205.516 566.676C205.343 566.409 205.088 566.206 204.79 566.096C204.492 565.986 204.166 565.975 203.862 566.066C203.557 566.156 203.29 566.342 203.099 566.597C203.035 566.686 202.981 566.783 202.939 566.885C202.644 567.542 202.12 568.067 201.464 568.362C200.809 568.658 200.068 568.703 199.381 568.489C199.275 568.454 199.165 568.433 199.053 568.425C198.736 568.404 198.421 568.487 198.154 568.66C197.888 568.833 197.685 569.088 197.575 569.386C197.465 569.685 197.454 570.011 197.544 570.315C197.635 570.62 197.821 570.888 198.075 571.078C198.165 571.142 198.262 571.196 198.364 571.238C199.02 571.533 199.545 572.058 199.84 572.714C200.135 573.37 200.18 574.111 199.966 574.798C199.932 574.904 199.911 575.015 199.902 575.126C199.882 575.444 199.964 575.759 200.138 576.025C200.311 576.292 200.565 576.495 200.864 576.605C201.162 576.715 201.487 576.726 201.792 576.636C202.097 576.545 202.364 576.359 202.554 576.104C202.619 576.015 202.673 575.918 202.715 575.816C203.009 575.16 203.534 574.634 204.189 574.339C204.845 574.043 205.586 573.998 206.272 574.212C206.379 574.247 206.489 574.268 206.601 574.277C206.918 574.297 207.233 574.214 207.5 574.041C207.766 573.868 207.969 573.613 208.079 573.315C208.189 573.016 208.2 572.691 208.109 572.386C208.019 572.081 207.833 571.813 207.578 571.623C207.489 571.559 207.392 571.505 207.29 571.463Z" fill="#4D8AF0"/>
<path opacity="0.5" d="M46.394 317.061C45.7382 316.767 45.213 316.242 44.9177 315.586C44.6224 314.93 44.5775 314.189 44.7914 313.502C44.8257 313.396 44.8472 313.285 44.8556 313.173C44.876 312.856 44.7935 312.541 44.6202 312.274C44.447 312.008 44.1923 311.804 43.8941 311.695C43.596 311.585 43.2703 311.574 42.9656 311.664C42.661 311.754 42.3936 311.941 42.2033 312.195C42.1389 312.285 42.0851 312.382 42.0431 312.484C41.7485 313.14 41.2239 313.666 40.5683 313.961C39.9128 314.256 39.1718 314.301 38.4854 314.087C38.3788 314.053 38.2685 314.032 38.1569 314.023C37.8398 314.003 37.5246 314.085 37.2582 314.259C36.9918 314.432 36.7885 314.687 36.6786 314.985C36.5687 315.283 36.5581 315.609 36.6483 315.914C36.7386 316.219 36.9248 316.486 37.1793 316.677C37.2689 316.741 37.3657 316.795 37.4678 316.837C38.1236 317.132 38.6488 317.657 38.9441 318.312C39.2394 318.968 39.2843 319.71 39.0703 320.396C39.0361 320.503 39.0146 320.613 39.0062 320.725C38.9727 321.048 39.0466 321.373 39.2165 321.65C39.3864 321.926 39.6428 322.139 39.9459 322.255C40.2491 322.371 40.582 322.384 40.8931 322.291C41.2042 322.199 41.476 322.006 41.6665 321.743C41.7309 321.653 41.7847 321.557 41.8267 321.454C42.1213 320.798 42.6459 320.273 43.3015 319.977C43.957 319.682 44.698 319.637 45.3844 319.851C45.491 319.885 45.6013 319.907 45.7129 319.915C46.03 319.936 46.3453 319.853 46.6116 319.68C46.878 319.507 47.0813 319.252 47.1912 318.953C47.3011 318.655 47.3117 318.329 47.2215 318.024C47.1312 317.72 46.945 317.452 46.6905 317.262C46.6005 317.183 46.5009 317.115 46.394 317.061Z" fill="#4D8AF0"/>
<path opacity="0.5" d="M133.733 386.805C133.077 386.51 132.552 385.985 132.257 385.329C131.961 384.673 131.916 383.932 132.13 383.245C132.165 383.139 132.186 383.028 132.194 382.917C132.215 382.599 132.132 382.284 131.959 382.018C131.786 381.751 131.531 381.548 131.233 381.438C130.935 381.328 130.609 381.317 130.305 381.407C130 381.498 129.732 381.684 129.542 381.939C129.478 382.028 129.424 382.125 129.382 382.227C129.087 382.883 128.563 383.409 127.907 383.704C127.252 384 126.511 384.045 125.824 383.83C125.718 383.796 125.607 383.775 125.496 383.766C125.179 383.746 124.863 383.828 124.597 384.002C124.331 384.175 124.127 384.43 124.017 384.728C123.908 385.027 123.897 385.352 123.987 385.657C124.077 385.962 124.264 386.229 124.518 386.42C124.608 386.484 124.705 386.538 124.807 386.58C125.463 386.875 125.988 387.4 126.283 388.056C126.578 388.711 126.623 389.453 126.409 390.139C126.375 390.246 126.353 390.356 126.345 390.468C126.312 390.791 126.385 391.116 126.555 391.393C126.725 391.669 126.982 391.882 127.285 391.998C127.588 392.114 127.921 392.127 128.232 392.034C128.543 391.942 128.815 391.749 129.005 391.486C129.07 391.397 129.124 391.3 129.166 391.198C129.46 390.541 129.985 390.016 130.64 389.721C131.296 389.425 132.037 389.38 132.723 389.594C132.83 389.629 132.94 389.65 133.052 389.658C133.369 389.679 133.684 389.596 133.951 389.423C134.217 389.25 134.42 388.995 134.53 388.697C134.64 388.398 134.651 388.072 134.56 387.768C134.47 387.463 134.284 387.195 134.029 387.005C133.939 386.926 133.84 386.859 133.733 386.805Z" fill="#4D8AF0"/>
<path opacity="0.5" d="M632.127 575.992C631.471 575.697 630.946 575.172 630.65 574.517C630.355 573.861 630.31 573.12 630.524 572.433C630.558 572.326 630.58 572.216 630.588 572.104C630.609 571.787 630.526 571.472 630.353 571.205C630.18 570.939 629.925 570.735 629.627 570.625C629.329 570.515 629.003 570.505 628.698 570.595C628.394 570.685 628.126 570.872 627.936 571.126C627.872 571.216 627.818 571.313 627.776 571.415C627.481 572.071 626.957 572.596 626.301 572.892C625.645 573.187 624.904 573.232 624.218 573.018C624.112 572.984 624.001 572.962 623.89 572.954C623.572 572.933 623.257 573.016 622.991 573.189C622.724 573.363 622.521 573.617 622.411 573.916C622.301 574.214 622.291 574.54 622.381 574.845C622.471 575.149 622.658 575.417 622.912 575.607C623.002 575.672 623.098 575.726 623.2 575.768C623.856 576.062 624.382 576.587 624.677 577.243C624.972 577.899 625.017 578.64 624.803 579.327C624.769 579.434 624.747 579.544 624.739 579.656C624.705 579.979 624.779 580.304 624.949 580.58C625.119 580.857 625.375 581.07 625.679 581.186C625.982 581.302 626.315 581.314 626.626 581.222C626.937 581.129 627.209 580.937 627.399 580.674C627.464 580.584 627.517 580.487 627.559 580.385C627.854 579.729 628.379 579.203 629.034 578.908C629.69 578.613 630.431 578.568 631.117 578.782C631.224 578.816 631.334 578.838 631.446 578.846C631.763 578.866 632.078 578.784 632.344 578.61C632.611 578.437 632.814 578.182 632.924 577.884C633.034 577.586 633.044 577.26 632.954 576.955C632.864 576.65 632.678 576.383 632.423 576.193C632.333 576.113 632.234 576.046 632.127 575.992Z" fill="#4D8AF0"/>
<path opacity="0.5" d="M4.80766 533.537C7.46285 533.537 9.61531 531.383 9.61531 528.727C9.61531 526.07 7.46285 523.917 4.80766 523.917C2.15246 523.917 0 526.07 0 528.727C0 531.383 2.15246 533.537 4.80766 533.537Z" fill="#F55F44"/>
<path opacity="0.5" d="M547.272 56.5601C549.927 56.5601 552.079 54.4067 552.079 51.7503C552.079 49.0939 549.927 46.9404 547.272 46.9404C544.616 46.9404 542.464 49.0939 542.464 51.7503C542.464 54.4067 544.616 56.5601 547.272 56.5601Z" fill="#4D8AF0"/>
<path opacity="0.5" d="M83.3328 66.18C85.988 66.18 88.1404 64.0265 88.1404 61.3701C88.1404 58.7137 85.988 56.5603 83.3328 56.5603C80.6776 56.5603 78.5251 58.7137 78.5251 61.3701C78.5251 64.0265 80.6776 66.18 83.3328 66.18Z" fill="#47E6B1"/>
<path opacity="0.5" d="M552.079 282.623C554.734 282.623 556.887 280.47 556.887 277.813C556.887 275.157 554.734 273.003 552.079 273.003C549.424 273.003 547.271 275.157 547.271 277.813C547.271 280.47 549.424 282.623 552.079 282.623Z" fill="#F55F44"/>
</g>
<defs>
<linearGradient id="paint0_linear" x1="196.125" y1="565.827" x2="422.98" y2="26.7384" gradientUnits="userSpaceOnUse">
<stop stop-color="#808080" stop-opacity="0.25"/>
<stop offset="0.54" stop-color="#808080" stop-opacity="0.12"/>
<stop offset="1" stop-color="#808080" stop-opacity="0.1"/>
</linearGradient>
<linearGradient id="paint1_linear" x1="84650.8" y1="109778" x2="84650.8" y2="78257.7" gradientUnits="userSpaceOnUse">
<stop stop-color="#808080" stop-opacity="0.25"/>
<stop offset="0.54" stop-color="#808080" stop-opacity="0.12"/>
<stop offset="1" stop-color="#808080" stop-opacity="0.1"/>
</linearGradient>
<linearGradient id="paint2_linear" x1="94921.3" y1="68144.7" x2="94921.3" y2="36611.3" gradientUnits="userSpaceOnUse">
<stop stop-color="#808080" stop-opacity="0.25"/>
<stop offset="0.54" stop-color="#808080" stop-opacity="0.12"/>
<stop offset="1" stop-color="#808080" stop-opacity="0.1"/>
</linearGradient>
<linearGradient id="paint3_linear" x1="100464" y1="63489.3" x2="100464" y2="36085.7" gradientUnits="userSpaceOnUse">
<stop stop-color="#808080" stop-opacity="0.25"/>
<stop offset="0.54" stop-color="#808080" stop-opacity="0.12"/>
<stop offset="1" stop-color="#808080" stop-opacity="0.1"/>
</linearGradient>
<linearGradient id="paint4_linear" x1="-881500" y1="104469" x2="-881500" y2="77065.5" gradientUnits="userSpaceOnUse">
<stop stop-color="#808080" stop-opacity="0.25"/>
<stop offset="0.54" stop-color="#808080" stop-opacity="0.12"/>
<stop offset="1" stop-color="#808080" stop-opacity="0.1"/>
</linearGradient>
<clipPath id="clip0">
<rect width="633" height="586" fill="white" transform="translate(0 0.445312)"/>
</clipPath>
</defs>
</svg>
