<svg width="946" height="682" viewBox="0 0 946 682" fill="none" xmlns="http://www.w3.org/2000/svg">
<g clip-path="url(#clip0)">
<path opacity="0.5" d="M471.151 678.939C601.191 678.939 706.609 661.505 706.609 639.999C706.609 618.493 601.191 601.059 471.151 601.059C341.111 601.059 235.693 618.493 235.693 639.999C235.693 661.505 341.111 678.939 471.151 678.939Z" fill="#DEE3F3"/>
<g opacity="0.45">
<path opacity="0.45" d="M414.598 234.782C414.6 235.217 414.631 235.652 414.691 236.083C414.631 235.652 414.6 235.217 414.598 234.782Z" fill="#5BC2D9"/>
<path opacity="0.45" d="M533.169 206.811C533.187 206.927 533.209 207.041 533.223 207.158C533.209 207.041 533.187 206.927 533.169 206.811Z" fill="#5BC2D9"/>
<path opacity="0.45" d="M532.922 205.657C532.956 205.778 532.988 205.899 533.018 206.022C532.988 205.899 532.956 205.778 532.922 205.657Z" fill="#5BC2D9"/>
<path opacity="0.45" d="M533.045 236.97C533 237.17 532.948 237.367 532.891 237.563C532.948 237.367 533 237.17 533.045 236.97Z" fill="#5BC2D9"/>
<path opacity="0.45" d="M533.211 236.015C533.185 236.227 533.153 236.438 533.114 236.647C533.153 236.438 533.185 236.228 533.211 236.015Z" fill="#5BC2D9"/>
<path opacity="0.45" d="M420.081 243.672C419.291 243.264 418.559 242.757 417.902 242.163C418.558 242.757 419.291 243.265 420.081 243.672Z" fill="#5BC2D9"/>
<path opacity="0.45" d="M417.823 242.091C417.514 241.807 417.224 241.504 416.954 241.184C417.224 241.504 417.514 241.807 417.823 242.091Z" fill="#5BC2D9"/>
<path opacity="0.45" d="M592.797 433.526C592.677 433.13 592.533 432.741 592.364 432.362C592.533 432.741 592.677 433.13 592.797 433.526Z" fill="#5BC2D9"/>
<path opacity="0.45" d="M587.732 427.489C588.134 427.696 588.522 427.928 588.892 428.185C588.522 427.928 588.134 427.695 587.732 427.489Z" fill="#5BC2D9"/>
<path opacity="0.45" d="M590.011 429.088C590.633 429.664 591.179 430.315 591.636 431.025C591.179 430.315 590.633 429.664 590.011 429.088Z" fill="#5BC2D9"/>
<path opacity="0.45" d="M588.927 428.212C589.265 428.449 589.588 428.707 589.894 428.982C589.588 428.707 589.265 428.449 588.927 428.212Z" fill="#5BC2D9"/>
<path opacity="0.45" d="M592.276 432.183C592.124 431.859 591.953 431.543 591.766 431.236C591.953 431.543 592.124 431.859 592.276 432.183Z" fill="#5BC2D9"/>
<path opacity="0.45" d="M593.077 434.764C593.022 434.43 592.95 434.099 592.861 433.773C592.95 434.099 593.022 434.43 593.077 434.764Z" fill="#5BC2D9"/>
<path opacity="0.45" d="M899.95 379.834H841.405C842.757 378.912 843.861 377.681 844.624 376.247C845.387 374.813 845.785 373.218 845.785 371.599V345.136C845.785 343.819 845.521 342.515 845.01 341.298C844.498 340.081 843.747 338.976 842.802 338.045C841.856 337.113 840.733 336.375 839.497 335.871C838.261 335.367 836.937 335.107 835.599 335.107H768.213C770.271 334.46 772.067 333.187 773.341 331.469C774.616 329.752 775.303 327.68 775.303 325.554V299.09C775.304 297.471 774.905 295.876 774.142 294.442C773.38 293.008 772.275 291.777 770.923 290.856H835.599C836.937 290.856 838.261 290.596 839.497 290.092C840.733 289.588 841.856 288.85 842.802 287.918C843.747 286.987 844.498 285.882 845.01 284.665C845.521 283.448 845.785 282.144 845.785 280.827V254.364C845.785 253.047 845.521 251.743 845.01 250.526C844.498 249.309 843.747 248.204 842.802 247.273C841.856 246.341 840.733 245.603 839.497 245.099C838.261 244.595 836.937 244.335 835.599 244.335H763.604C765.661 243.688 767.457 242.414 768.732 240.697C770.006 238.98 770.693 236.908 770.693 234.781V208.318C770.694 206.699 770.296 205.104 769.533 203.67C768.77 202.236 767.665 201.005 766.313 200.084H835.599C836.937 200.084 838.261 199.824 839.497 199.32C840.733 198.816 841.856 198.078 842.802 197.146C843.747 196.215 844.498 195.11 845.01 193.893C845.521 192.676 845.785 191.372 845.785 190.055V163.592C845.785 162.275 845.521 160.971 845.01 159.754C844.498 158.537 843.747 157.432 842.802 156.5C841.856 155.569 840.733 154.831 839.497 154.327C838.261 153.823 836.937 153.563 835.599 153.563H799.328C801.386 152.916 803.182 151.642 804.456 149.925C805.731 148.208 806.418 146.136 806.418 144.009V117.546C806.418 116.229 806.155 114.925 805.643 113.708C805.131 112.492 804.381 111.386 803.435 110.455C802.489 109.524 801.366 108.785 800.13 108.281C798.895 107.777 797.57 107.518 796.232 107.518H697.905C696.568 107.517 695.243 107.777 694.007 108.281C692.772 108.785 691.649 109.524 690.703 110.455C689.757 111.386 689.007 112.492 688.495 113.708C687.983 114.925 687.72 116.229 687.72 117.546C687.72 116.229 687.456 114.925 686.944 113.708C686.432 112.492 685.682 111.386 684.736 110.455C683.79 109.524 682.668 108.785 681.432 108.281C680.196 107.777 678.871 107.518 677.534 107.518H579.207C577.266 107.518 575.366 108.065 573.731 109.094C572.096 110.123 570.793 111.591 569.977 113.324C570.107 113.967 570.173 114.621 570.173 115.277V141.74C570.172 143.197 569.847 144.635 569.221 145.955C569.679 148.24 570.932 150.296 572.765 151.769H598.017C600.37 151.766 602.65 152.568 604.468 154.038H615.477C613.42 154.685 611.624 155.959 610.35 157.676C609.075 159.393 608.388 161.465 608.388 163.592C608.386 162.954 608.322 162.318 608.198 161.692C608.198 161.727 608.203 161.762 608.203 161.798V188.261C608.2 189.105 608.088 189.945 607.871 190.762C608.034 190.932 608.181 191.117 608.308 191.315C608.361 190.897 608.388 190.476 608.388 190.055C608.393 190.636 608.45 191.216 608.558 191.788C608.693 192.107 608.771 192.447 608.787 192.792C609.43 195.022 610.836 196.964 612.768 198.29H604.008C604.086 198.236 604.156 198.171 604.233 198.115C603.419 198.135 602.6 198.048 601.785 198.038C601.494 198.035 601.207 197.976 600.939 197.866C599.991 198.146 599.007 198.289 598.017 198.29L537.676 200.084C536.324 201.005 535.22 202.236 534.457 203.67C533.694 205.104 533.296 206.699 533.296 208.318V234.781C533.297 236.908 533.984 238.98 535.258 240.697C536.532 242.414 538.328 243.688 540.386 244.335L598.017 244.81C599.031 244.81 600.038 244.958 601.007 245.251C601.65 245.306 602.287 245.416 602.911 245.58C602.959 245.57 603.007 245.566 603.055 245.556C602.495 245.253 601.906 245.004 601.298 244.81H615.477C613.42 245.457 611.624 246.731 610.349 248.448C609.075 250.165 608.388 252.237 608.388 254.364C608.387 253.782 608.335 253.202 608.232 252.629C608.165 252.725 608.09 252.815 608.009 252.899C608.137 253.538 608.202 254.188 608.203 254.839V281.302C608.203 282.53 608.388 282.235 608.388 280.827C608.387 282.446 608.786 284.041 609.548 285.475C610.311 286.909 611.416 288.14 612.768 289.062L648.723 290.196C649.957 290.198 651.18 290.422 652.331 290.856H660.984C659.436 291.922 658.217 293.389 657.464 295.096C658.409 296.645 658.909 298.418 658.909 300.225V326.688C658.91 328.07 658.619 329.436 658.055 330.701C659.329 332.795 661.334 334.361 663.694 335.107H654.246C652.602 336.159 650.684 336.718 648.723 336.717H613.055C611.623 337.623 610.446 338.869 609.63 340.34C608.815 341.811 608.388 343.46 608.388 345.136C608.388 341.602 607.051 376.43 607.051 376.43C607.051 379.558 662.552 380.968 662.552 380.968C663.963 380.968 665.358 381.258 666.648 381.818C667.227 381.697 667.819 381.646 668.411 381.669C668.393 381.656 668.377 381.64 668.358 381.628H677.118C675.766 382.549 674.662 383.78 673.899 385.214C673.136 386.648 672.738 388.243 672.738 389.862C672.735 389.384 672.698 388.906 672.626 388.432C672.578 388.541 672.528 388.648 672.473 388.752C672.647 389.488 672.736 390.241 672.738 390.997V416.326C672.738 417.643 673.002 418.947 673.514 420.164C674.025 421.38 674.776 422.486 675.722 423.417C676.667 424.348 677.79 425.087 679.026 425.591C680.262 426.095 681.586 426.354 682.924 426.354H667.248C665.799 427.1 664.188 427.489 662.552 427.489H598.712C597.057 428.334 595.67 429.611 594.702 431.179C593.734 432.748 593.222 434.548 593.222 436.383V462.846C593.222 464.163 593.485 465.467 593.997 466.684C594.509 467.901 595.259 469.006 596.205 469.938C597.151 470.869 598.274 471.608 599.509 472.112C600.745 472.616 602.07 472.875 603.407 472.875H701.735C703.072 472.875 704.397 472.616 705.632 472.112C706.868 471.608 707.991 470.869 708.937 469.938C709.883 469.006 710.633 467.901 711.145 466.684C711.657 465.467 711.92 464.163 711.92 462.846C711.92 464.163 712.184 465.467 712.696 466.684C713.207 467.901 713.958 469.006 714.904 469.938C715.849 470.869 716.972 471.608 718.208 472.112C719.444 472.616 720.768 472.875 722.106 472.875H820.433C821.771 472.875 823.095 472.616 824.331 472.112C825.567 471.608 826.69 470.869 827.636 469.938C828.581 469.006 829.332 467.901 829.844 466.684C830.355 465.467 830.619 464.163 830.619 462.846V436.383C830.619 435.066 830.355 433.762 829.844 432.545C829.332 431.329 828.581 430.223 827.636 429.292C826.69 428.36 825.567 427.622 824.331 427.118C823.095 426.614 821.771 426.354 820.433 426.354H899.95C901.287 426.354 902.612 426.095 903.848 425.591C905.083 425.087 906.206 424.348 907.152 423.417C908.098 422.486 908.848 421.38 909.36 420.163C909.872 418.947 910.135 417.643 910.135 416.326V389.862C910.135 388.545 909.872 387.241 909.36 386.025C908.848 384.808 908.098 383.702 907.152 382.771C906.206 381.84 905.083 381.101 903.848 380.597C902.612 380.093 901.287 379.834 899.95 379.834ZM656.375 200.084C655.023 201.005 653.918 202.236 653.155 203.67C652.393 205.104 651.994 206.699 651.995 208.318C651.995 206.699 651.597 205.104 650.834 203.67C650.071 202.236 648.967 201.005 647.615 200.084H656.375ZM644.905 244.335C646.963 243.688 648.759 242.414 650.033 240.697C651.307 238.98 651.994 236.908 651.995 234.781C651.995 236.908 652.682 238.98 653.957 240.697C655.231 242.414 657.027 243.688 659.085 244.335H644.905ZM680.63 153.563C682.688 152.916 684.483 151.642 685.758 149.925C687.032 148.208 687.719 146.136 687.72 144.009C687.72 146.136 688.407 148.208 689.681 149.925C690.956 151.642 692.752 152.916 694.809 153.563H680.63ZM711.92 436.383C711.92 435.066 711.657 433.762 711.145 432.545C710.633 431.328 709.883 430.223 708.937 429.292C707.991 428.36 706.868 427.622 705.632 427.118C704.397 426.614 703.072 426.354 701.735 426.354H722.106C720.768 426.354 719.444 426.614 718.208 427.118C716.972 427.622 715.849 428.36 714.904 429.292C713.958 430.223 713.207 431.329 712.696 432.545C712.184 433.762 711.92 435.066 711.92 436.383ZM722.706 379.834C724.058 378.912 725.163 377.681 725.926 376.247C726.688 374.813 727.087 373.218 727.086 371.599C727.086 373.218 727.484 374.813 728.247 376.247C729.01 377.681 730.115 378.912 731.467 379.834H722.706ZM727.086 345.136C727.086 343.009 726.399 340.938 725.125 339.22C723.85 337.503 722.054 336.229 719.997 335.582H734.176C732.118 336.229 730.323 337.503 729.048 339.22C727.774 340.938 727.087 343.009 727.086 345.136ZM722.706 289.062C724.058 288.14 725.163 286.909 725.926 285.475C726.688 284.041 727.087 282.446 727.086 280.827C727.086 282.446 727.484 284.041 728.247 285.475C729.01 286.909 730.115 288.14 731.467 289.062H722.706ZM727.086 254.364C727.086 252.237 726.399 250.165 725.125 248.448C723.85 246.731 722.054 245.457 719.997 244.81H734.176C732.118 245.457 730.323 246.731 729.048 248.448C727.774 250.165 727.087 252.237 727.086 254.364ZM722.706 198.29C724.058 197.368 725.163 196.137 725.926 194.703C726.688 193.269 727.087 191.674 727.086 190.055C727.086 191.674 727.484 193.269 728.247 194.703C729.01 196.137 730.115 197.368 731.467 198.29H722.706ZM727.086 163.592C727.086 161.465 726.399 159.393 725.125 157.676C723.85 155.959 722.054 154.685 719.997 154.038H734.176C732.118 154.685 730.323 155.959 729.048 157.676C727.774 159.393 727.087 161.465 727.086 163.592ZM795.817 381.628C794.465 382.549 793.36 383.78 792.597 385.214C791.835 386.648 791.436 388.243 791.437 389.862C791.437 388.243 791.039 386.648 790.276 385.214C789.513 383.78 788.409 382.549 787.057 381.628H795.817ZM781.251 426.354C782.589 426.354 783.913 426.095 785.149 425.591C786.385 425.087 787.508 424.348 788.454 423.417C789.399 422.486 790.15 421.38 790.662 420.163C791.173 418.947 791.437 417.643 791.437 416.326C791.437 417.643 791.7 418.947 792.212 420.163C792.724 421.38 793.474 422.486 794.42 423.417C795.366 424.348 796.489 425.087 797.725 425.591C798.96 426.095 800.285 426.354 801.623 426.354H781.251Z" fill="#5BC2D9"/>
<path opacity="0.45" d="M593.222 436.383C593.219 435.956 593.188 435.529 593.13 435.106C593.188 435.529 593.219 435.956 593.222 436.383Z" fill="#5BC2D9"/>
<path opacity="0.45" d="M533.296 234.782C533.296 235.099 533.277 235.412 533.248 235.723C533.277 235.412 533.296 235.099 533.296 234.782Z" fill="#5BC2D9"/>
<path opacity="0.45" d="M414.715 236.277C414.777 236.679 414.864 237.077 414.976 237.469C414.864 237.077 414.777 236.679 414.715 236.277Z" fill="#5BC2D9"/>
<path opacity="0.45" d="M300.728 295.408C300.559 295.26 300.412 295.089 300.293 294.9C300.146 294.64 300.048 294.357 300.004 294.063C299.979 294.75 299.99 295.439 300.036 296.125C300.345 297.085 300.504 298.085 300.509 299.091C300.513 298.113 300.664 297.141 300.956 296.206C300.863 295.979 300.791 295.744 300.741 295.504C300.734 295.471 300.734 295.44 300.728 295.408Z" fill="#5BC2D9"/>
<path opacity="0.45" d="M440.137 107.518H341.81C340.472 107.518 339.147 107.777 337.912 108.281C336.676 108.785 335.553 109.524 334.607 110.455C333.661 111.386 332.911 112.492 332.399 113.708C331.887 114.925 331.624 116.229 331.624 117.546C331.624 116.229 331.36 114.925 330.848 113.708C330.337 112.492 329.586 111.386 328.64 110.455C327.695 109.524 326.572 108.785 325.336 108.281C324.1 107.777 322.776 107.518 321.438 107.518H223.111C221.773 107.518 220.449 107.777 219.213 108.281C217.977 108.785 216.854 109.524 215.909 110.455C214.963 111.386 214.212 112.492 213.701 113.708C213.189 114.925 212.925 116.229 212.925 117.546V144.009C212.926 146.136 213.613 148.208 214.887 149.925C216.161 151.642 217.957 152.916 220.015 153.563H143.779C142.441 153.563 141.117 153.823 139.881 154.327C138.645 154.83 137.522 155.569 136.577 156.5C135.631 157.432 134.881 158.537 134.369 159.754C133.857 160.971 133.593 162.275 133.593 163.592V190.055C133.593 191.674 133.991 193.269 134.754 194.703C135.517 196.137 136.622 197.368 137.973 198.29H68.6874C67.3498 198.29 66.0253 198.549 64.7895 199.053C63.5537 199.557 62.4309 200.296 61.485 201.227C60.5392 202.158 59.7889 203.264 59.277 204.48C58.7652 205.697 58.5017 207.001 58.5017 208.318V234.782C58.5017 236.098 58.7652 237.403 59.277 238.619C59.7889 239.836 60.5392 240.942 61.485 241.873C62.4309 242.804 63.5537 243.543 64.7895 244.047C66.0253 244.551 67.3498 244.81 68.6874 244.81H140.683C138.625 245.457 136.829 246.731 135.555 248.448C134.281 250.165 133.594 252.237 133.593 254.364V280.827C133.593 282.446 133.991 284.041 134.754 285.475C135.517 286.909 136.622 288.14 137.973 289.062H73.2971C71.9595 289.062 70.635 289.321 69.3992 289.825C68.1634 290.329 67.0405 291.068 66.0947 291.999C65.1488 292.93 64.3986 294.036 63.8867 295.253C63.3748 296.469 63.1114 297.773 63.1114 299.09V325.554C63.1114 326.871 63.3748 328.175 63.8867 329.391C64.3986 330.608 65.1488 331.714 66.0947 332.645C67.0405 333.576 68.1634 334.315 69.3992 334.819C70.635 335.323 71.9595 335.582 73.2971 335.582H140.683C138.625 336.229 136.829 337.503 135.555 339.22C134.281 340.938 133.594 343.009 133.593 345.136V371.599C133.593 372.916 133.857 374.22 134.369 375.437C134.881 376.654 135.631 377.759 136.577 378.691C137.522 379.622 138.645 380.361 139.881 380.865C141.117 381.369 142.441 381.628 143.779 381.628H202.324C200.972 382.55 199.867 383.78 199.104 385.214C198.342 386.649 197.943 388.244 197.944 389.862V416.326C197.944 418.985 199.017 421.536 200.927 423.417C202.837 425.298 205.428 426.354 208.13 426.354H128.613C127.275 426.354 125.951 426.614 124.715 427.118C123.479 427.622 122.356 428.361 121.411 429.292C120.465 430.223 119.714 431.329 119.203 432.545C118.691 433.762 118.427 435.066 118.427 436.383V462.846C118.427 464.163 118.691 465.467 119.203 466.684C119.714 467.901 120.465 469.006 121.411 469.938C122.356 470.869 123.479 471.608 124.715 472.112C125.951 472.616 127.275 472.875 128.613 472.875H226.94C228.278 472.875 229.602 472.616 230.838 472.112C232.074 471.608 233.197 470.869 234.142 469.938C235.088 469.006 235.839 467.901 236.35 466.684C236.862 465.467 237.126 464.163 237.126 462.846C237.126 464.163 237.389 465.467 237.901 466.684C238.413 467.901 239.163 469.006 240.109 469.938C241.055 470.869 242.178 471.608 243.414 472.112C244.649 472.616 245.974 472.875 247.312 472.875H345.639C346.976 472.875 348.301 472.616 349.537 472.112C350.772 471.608 351.895 470.869 352.841 469.938C353.787 469.006 354.537 467.901 355.049 466.684C355.561 465.467 355.824 464.163 355.824 462.846V436.383C355.824 434.548 355.312 432.748 354.344 431.179C353.376 429.611 351.989 428.334 350.334 427.489H329.133C327.498 427.489 325.887 427.1 324.437 426.354H306.457C309.158 426.354 311.749 425.298 313.659 423.417C315.569 421.536 316.642 418.985 316.642 416.326C316.642 420.689 318.947 390.997 318.947 390.997C318.947 389.68 319.211 388.376 319.723 387.159C320.234 385.943 320.985 384.837 321.931 383.906C322.876 382.974 323.999 382.236 325.235 381.732C326.471 381.228 327.795 380.968 329.133 380.968L366.61 379.834C367.679 379.097 368.595 378.166 369.309 377.091C368.779 375.863 368.504 374.543 368.501 373.209V346.746C368.499 344.783 369.085 342.863 370.186 341.227C369.385 339.377 368.04 337.806 366.323 336.717H312.999C311.039 336.718 309.12 336.159 307.477 335.107H293.419C295.477 334.461 297.272 333.187 298.547 331.469C299.821 329.752 300.508 327.68 300.509 325.554L300.148 299.284C300.148 298.1 300.083 297.052 300.036 296.125C299.365 293.99 297.99 292.135 296.128 290.856H304.889C304.823 290.901 304.764 290.956 304.699 291.002C309.665 290.722 366.392 287.446 371.003 283.791C370.886 283.098 370.863 282.392 370.936 281.692C370.853 281.188 370.81 280.678 370.806 280.168V253.704C370.806 253.376 370.824 253.052 370.856 252.731C370.549 250.909 369.737 249.205 368.51 247.808C367.283 246.41 365.688 245.373 363.901 244.81H376.296C377.745 244.064 379.356 243.675 380.992 243.676H409.107C410.761 242.83 412.149 241.554 413.117 239.986C414.085 238.417 414.597 236.617 414.598 234.782V208.318C414.598 206.699 414.2 205.104 413.437 203.67C412.674 202.236 411.569 201.005 410.217 200.084L380.992 198.29C376.039 198.29 372.763 196.503 375.371 198.29H366.61C367.953 197.373 369.052 196.152 369.814 194.729C370.576 193.306 370.978 191.723 370.987 190.114C370.868 189.503 370.808 188.883 370.806 188.261V161.798C370.806 161.776 370.809 161.755 370.809 161.733C370.468 159.957 369.646 158.305 368.43 156.95C367.214 155.596 365.649 154.59 363.901 154.038H374.541C376.359 152.568 378.639 151.766 380.992 151.769H446.579C447.749 150.831 448.692 149.648 449.34 148.305C449.988 146.963 450.323 145.496 450.322 144.01V117.546C450.322 116.229 450.059 114.925 449.547 113.708C449.035 112.492 448.285 111.386 447.339 110.455C446.393 109.524 445.27 108.785 444.035 108.281C442.799 107.777 441.474 107.518 440.137 107.518ZM181.58 200.084C180.229 201.005 179.124 202.236 178.361 203.67C177.598 205.104 177.2 206.699 177.2 208.318C177.201 206.699 176.802 205.104 176.04 203.67C175.277 202.236 174.172 201.005 172.82 200.084H181.58ZM177.2 234.782C177.201 236.908 177.888 238.98 179.162 240.697C180.436 242.415 182.232 243.688 184.29 244.335H170.111C172.168 243.688 173.964 242.415 175.239 240.697C176.513 238.98 177.2 236.908 177.2 234.782ZM186.19 290.856C184.838 291.778 183.733 293.008 182.971 294.442C182.208 295.877 181.809 297.471 181.81 299.09C181.81 297.471 181.412 295.877 180.649 294.442C179.886 293.008 178.782 291.778 177.43 290.856H186.19ZM174.72 335.107C176.778 334.461 178.574 333.187 179.848 331.469C181.123 329.752 181.81 327.68 181.81 325.554C181.81 327.68 182.497 329.752 183.772 331.469C185.046 333.187 186.842 334.461 188.9 335.107H174.72ZM300.279 200.084C298.927 201.005 297.822 202.236 297.06 203.67C296.297 205.104 295.898 206.699 295.899 208.318C295.899 206.699 295.501 205.104 294.738 203.67C293.975 202.236 292.871 201.005 291.519 200.084H300.279ZM237.126 436.383C237.126 435.066 236.862 433.762 236.35 432.545C235.839 431.329 235.088 430.223 234.142 429.292C233.197 428.361 232.074 427.622 230.838 427.118C229.602 426.614 228.278 426.354 226.94 426.354H247.312C245.974 426.354 244.649 426.614 243.414 427.118C242.178 427.622 241.055 428.361 240.109 429.292C239.163 430.223 238.413 431.329 237.901 432.545C237.389 433.762 237.126 435.066 237.126 436.383ZM247.912 379.834C249.264 378.912 250.368 377.681 251.131 376.247C251.894 374.813 252.292 373.218 252.292 371.599C252.291 373.218 252.69 374.813 253.453 376.247C254.216 377.681 255.32 378.912 256.672 379.834H247.912ZM252.292 345.136C252.291 343.009 251.604 340.938 250.33 339.22C249.056 337.503 247.26 336.229 245.202 335.582H259.382C257.324 336.229 255.528 337.503 254.254 339.22C252.979 340.938 252.292 343.009 252.292 345.136ZM247.912 289.062C249.264 288.14 250.368 286.909 251.131 285.475C251.894 284.041 252.292 282.446 252.292 280.827C252.291 282.446 252.69 284.041 253.453 285.475C254.216 286.909 255.32 288.14 256.672 289.062H247.912ZM252.292 254.364C252.291 252.237 251.604 250.165 250.33 248.448C249.056 246.731 247.26 245.457 245.202 244.81H259.382C257.324 245.457 255.528 246.731 254.254 248.448C252.979 250.165 252.292 252.237 252.292 254.364ZM247.912 198.29C249.264 197.368 250.368 196.137 251.131 194.703C251.894 193.269 252.292 191.674 252.292 190.055C252.291 191.674 252.69 193.269 253.453 194.703C254.216 196.137 255.32 197.368 256.672 198.29H247.912ZM252.292 163.592C252.291 161.465 251.604 159.393 250.33 157.676C249.056 155.959 247.26 154.685 245.202 154.038H259.382C257.324 154.685 255.528 155.959 254.254 157.676C252.979 159.393 252.292 161.465 252.292 163.592ZM288.809 244.335C290.867 243.689 292.663 242.415 293.937 240.697C295.212 238.98 295.899 236.908 295.899 234.782C295.899 236.908 296.586 238.98 297.861 240.697C299.135 242.415 300.931 243.689 302.989 244.335H288.809ZM324.534 153.563C326.592 152.916 328.388 151.642 329.662 149.925C330.936 148.208 331.623 146.136 331.624 144.01C331.624 146.136 332.311 148.208 333.586 149.925C334.86 151.642 336.656 152.916 338.714 153.563H324.534Z" fill="#5BC2D9"/>
<path opacity="0.45" d="M417.946 200.899C417.994 200.857 418.041 200.813 418.09 200.771C418.041 200.813 417.994 200.856 417.946 200.899Z" fill="#5BC2D9"/>
<path opacity="0.45" d="M417.269 201.565C417.219 201.619 417.168 201.672 417.119 201.727C417.168 201.672 417.219 201.619 417.269 201.565Z" fill="#5BC2D9"/>
<path opacity="0.45" d="M416.415 202.608C416.438 202.576 416.464 202.545 416.488 202.513C416.464 202.545 416.438 202.576 416.415 202.608Z" fill="#5BC2D9"/>
<path opacity="0.45" d="M415.036 237.674C415.154 238.064 415.296 238.446 415.462 238.819C415.296 238.446 415.154 238.064 415.036 237.674Z" fill="#5BC2D9"/>
<path opacity="0.45" d="M416.122 240.055C416.351 240.415 416.602 240.759 416.875 241.087C416.602 240.759 416.351 240.415 416.122 240.055Z" fill="#5BC2D9"/>
<path opacity="0.45" d="M415.513 238.926C415.69 239.311 415.891 239.684 416.116 240.044C415.891 239.684 415.69 239.311 415.513 238.926Z" fill="#5BC2D9"/>
<path opacity="0.45" d="M414.876 206.022C414.906 205.899 414.938 205.778 414.972 205.657C414.938 205.778 414.906 205.899 414.876 206.022Z" fill="#5BC2D9"/>
<path opacity="0.45" d="M415.22 204.892C415.257 204.792 415.292 204.691 415.332 204.593C415.292 204.691 415.258 204.792 415.22 204.892Z" fill="#5BC2D9"/>
<path opacity="0.45" d="M414.671 207.158C414.685 207.041 414.707 206.927 414.725 206.811C414.707 206.927 414.685 207.041 414.671 207.158Z" fill="#5BC2D9"/>
<path opacity="0.45" d="M415.781 203.63C415.788 203.619 415.792 203.607 415.798 203.596C415.792 203.607 415.788 203.619 415.781 203.63Z" fill="#5BC2D9"/>
<path opacity="0.1" d="M222.207 154.038H324.647C329.136 154.038 332.776 150.455 332.776 146.034V115.522C332.776 111.101 329.136 107.518 324.647 107.518L222.207 107.518C217.717 107.518 214.078 111.101 214.078 115.522V146.034C214.078 150.455 217.717 154.038 222.207 154.038Z" fill="black"/>
<path opacity="0.1" d="M577.151 154.038H679.59C684.08 154.038 687.72 150.455 687.72 146.034V115.522C687.72 111.101 684.08 107.518 679.59 107.518L577.151 107.518C572.661 107.518 569.021 111.101 569.021 115.522V146.034C569.021 150.455 572.661 154.038 577.151 154.038Z" fill="black"/>
<path opacity="0.1" d="M735.031 199.424H837.471C841.961 199.424 845.6 195.841 845.6 191.42V160.908C845.6 156.487 841.961 152.904 837.471 152.904H735.031C730.541 152.904 726.902 156.487 726.902 160.908V191.42C726.902 195.841 730.541 199.424 735.031 199.424Z" fill="black"/>
<path opacity="0.1" d="M541.425 244.81H643.865C648.355 244.81 651.995 241.227 651.995 236.806V206.294C651.995 201.873 648.355 198.29 643.865 198.29H541.425C536.936 198.29 533.296 201.873 533.296 206.294V236.806C533.296 241.227 536.936 244.81 541.425 244.81Z" fill="black"/>
<path opacity="0.1" d="M735.031 291.331H837.471C841.961 291.331 845.6 287.747 845.6 283.327V252.814C845.6 248.394 841.961 244.81 837.471 244.81H735.031C730.541 244.81 726.902 248.394 726.902 252.814V283.327C726.902 287.747 730.541 291.331 735.031 291.331Z" fill="black"/>
<path opacity="0.1" d="M735.031 382.103H837.471C841.961 382.103 845.6 378.519 845.6 374.099V343.586C845.6 339.166 841.961 335.582 837.471 335.582H735.031C730.541 335.582 726.902 339.166 726.902 343.586V374.099C726.902 378.519 730.541 382.103 735.031 382.103Z" fill="black"/>
<path opacity="0.1" d="M784.021 380.968H680.154C678.551 380.969 676.99 381.481 675.708 382.429C674.425 383.376 673.488 384.708 673.039 386.223C673.067 386.635 673.038 387.049 672.955 387.454C672.902 387.692 672.831 387.925 672.744 388.153C672.744 388.193 672.738 388.231 672.738 388.27V420.187C672.738 422.124 673.52 423.981 674.91 425.35C676.301 426.72 678.187 427.489 680.154 427.489H784.021C785.988 427.489 787.874 426.72 789.265 425.35C790.656 423.981 791.437 422.124 791.437 420.187V388.27C791.437 387.311 791.245 386.362 790.872 385.476C790.5 384.59 789.953 383.785 789.265 383.107C788.576 382.429 787.759 381.891 786.859 381.524C785.959 381.157 784.995 380.968 784.021 380.968Z" fill="black"/>
<path opacity="0.1" d="M601.351 472.875H703.791C708.281 472.875 711.92 469.292 711.92 464.871V434.358C711.92 429.938 708.281 426.354 703.791 426.354H601.351C596.861 426.354 593.222 429.938 593.222 434.358V464.871C593.222 469.292 596.861 472.875 601.351 472.875Z" fill="black"/>
<path opacity="0.1" d="M260.237 199.424H362.677C367.166 199.424 370.806 195.841 370.806 191.42V160.908C370.806 156.487 367.166 152.904 362.677 152.904H260.237C255.747 152.904 252.107 156.487 252.107 160.908V191.42C252.107 195.841 255.747 199.424 260.237 199.424Z" fill="black"/>
<path opacity="0.1" d="M186.482 244.81H288.922C293.412 244.81 297.051 241.227 297.051 236.806V206.294C297.051 201.873 293.412 198.29 288.922 198.29H186.482C181.992 198.29 178.353 201.873 178.353 206.294V236.806C178.353 241.227 181.992 244.81 186.482 244.81Z" fill="black"/>
<path opacity="0.1" d="M141.538 291.331H243.978C248.468 291.331 252.107 287.747 252.107 283.327V252.814C252.107 248.394 248.468 244.81 243.978 244.81H141.538C137.048 244.81 133.409 248.394 133.409 252.814V283.327C133.409 287.747 137.048 291.331 141.538 291.331Z" fill="black"/>
<path opacity="0.1" d="M189.939 336.717H292.379C296.869 336.717 300.509 333.133 300.509 328.713V298.2C300.509 293.78 296.869 290.196 292.379 290.196H189.939C185.45 290.196 181.81 293.78 181.81 298.2V328.713C181.81 333.133 185.45 336.717 189.939 336.717Z" fill="black"/>
<path opacity="0.1" d="M141.538 382.103H243.978C248.468 382.103 252.107 378.519 252.107 374.099V343.586C252.107 339.166 248.468 335.582 243.978 335.582H141.538C137.048 335.582 133.409 339.166 133.409 343.586V374.099C133.409 378.519 137.048 382.103 141.538 382.103Z" fill="black"/>
<path opacity="0.45" d="M87.839 427.539H190.279C194.769 427.539 198.408 423.956 198.408 419.535V389.023C198.408 384.602 194.769 381.019 190.279 381.019H87.839C83.3492 381.019 79.7096 384.602 79.7096 389.023V419.535C79.7096 423.956 83.3492 427.539 87.839 427.539Z" fill="#5BC2D9"/>
<path opacity="0.45" d="M780.893 336.667H883.333C887.822 336.667 891.462 333.083 891.462 328.663V298.15C891.462 293.73 887.822 290.146 883.333 290.146H780.893C776.403 290.146 772.763 293.73 772.763 298.15V328.663C772.763 333.083 776.403 336.667 780.893 336.667Z" fill="#5BC2D9"/>
<path opacity="0.45" d="M775.858 244.968H878.298C882.788 244.968 886.427 241.384 886.427 236.964V206.451C886.427 202.031 882.788 198.447 878.298 198.447H775.858C771.368 198.447 767.729 202.031 767.729 206.451V236.964C767.729 241.384 771.368 244.968 775.858 244.968Z" fill="#5BC2D9"/>
<path opacity="0.45" d="M835.431 472.149H937.871C942.36 472.149 946 468.566 946 464.145V433.633C946 429.212 942.36 425.629 937.871 425.629H835.431C830.941 425.629 827.301 429.212 827.301 433.633V464.145C827.301 468.566 830.941 472.149 835.431 472.149Z" fill="#5BC2D9"/>
<path opacity="0.45" d="M8.12949 472.976H110.569C115.059 472.976 118.699 469.392 118.699 464.972V434.459C118.699 430.039 115.059 426.455 110.569 426.455H8.12949C3.63976 426.455 0.00012207 430.039 0.00012207 434.459V464.972C0.00012207 469.392 3.63976 472.976 8.12949 472.976Z" fill="#5BC2D9"/>
<path opacity="0.45" d="M24.0714 381.277H126.511C131.001 381.277 134.641 377.693 134.641 373.273V342.76C134.641 338.34 131.001 334.756 126.511 334.756H24.0714C19.5816 334.756 15.942 338.34 15.942 342.76V373.273C15.942 377.693 19.5816 381.277 24.0714 381.277Z" fill="#5BC2D9"/>
<path opacity="0.45" d="M24.0714 291.23H126.511C131.001 291.23 134.641 287.647 134.641 283.226V252.714C134.641 248.293 131.001 244.71 126.511 244.71H24.0714C19.5816 244.71 15.942 248.293 15.942 252.714V283.226C15.942 287.647 19.5816 291.23 24.0714 291.23Z" fill="#5BC2D9"/>
<path opacity="0.45" d="M28.2665 199.532H130.706C135.196 199.532 138.836 195.948 138.836 191.527V161.015C138.836 156.594 135.196 153.011 130.706 153.011H28.2665C23.7767 153.011 20.1371 156.594 20.1371 161.015V191.527C20.1371 195.948 23.7767 199.532 28.2665 199.532Z" fill="#5BC2D9"/>
<path opacity="0.1" d="M28.2665 199.532H130.706C135.196 199.532 138.836 195.948 138.836 191.527V161.015C138.836 156.594 135.196 153.011 130.706 153.011H28.2665C23.7767 153.011 20.1371 156.594 20.1371 161.015V191.527C20.1371 195.948 23.7767 199.532 28.2665 199.532Z" fill="black"/>
<path opacity="0.45" d="M103.781 154.095H206.221C210.71 154.095 214.35 150.512 214.35 146.091V115.579C214.35 111.158 210.71 107.575 206.221 107.575L103.781 107.575C99.2911 107.575 95.6515 111.158 95.6515 115.579V146.091C95.6515 150.512 99.2911 154.095 103.781 154.095Z" fill="#5BC2D9"/>
<path opacity="0.1" d="M207.226 427.489H309.666C314.155 427.489 317.795 423.906 317.795 419.485V388.972C317.795 384.552 314.155 380.968 309.666 380.968H207.226C202.736 380.968 199.096 384.552 199.096 388.972V419.485C199.096 423.906 202.736 427.489 207.226 427.489Z" fill="black"/>
<path opacity="0.1" d="M126.557 472.875H228.997C233.486 472.875 237.126 469.292 237.126 464.871V434.358C237.126 429.938 233.486 426.354 228.997 426.354H126.557C122.067 426.354 118.427 429.938 118.427 434.358V464.871C118.427 469.292 122.067 472.875 126.557 472.875Z" fill="black"/>
</g>
<path opacity="0.5" d="M745.312 52.6448C760.003 52.6448 771.912 40.9193 771.912 26.4551C771.912 11.9909 760.003 0.265381 745.312 0.265381C730.622 0.265381 718.712 11.9909 718.712 26.4551C718.712 40.9193 730.622 52.6448 745.312 52.6448Z" fill="#5BC2D9"/>
<path opacity="0.5" d="M231.723 73.9379H225.395C225.977 73.9395 226.555 73.8279 227.094 73.6095C227.633 73.391 228.123 73.07 228.535 72.6648C228.948 72.2596 229.275 71.7782 229.499 71.2482C229.722 70.7182 229.837 70.15 229.837 69.5761C229.837 69.0023 229.722 68.4341 229.499 67.9041C229.275 67.3741 228.948 66.8927 228.535 66.4875C228.123 66.0823 227.633 65.7613 227.094 65.5428C226.555 65.3243 225.977 65.2128 225.395 65.2144H174.133C173.55 65.2128 172.973 65.3243 172.434 65.5428C171.895 65.7613 171.405 66.0823 170.992 66.4875C170.579 66.8927 170.252 67.3741 170.028 67.9041C169.805 68.4341 169.69 69.0023 169.69 69.5761C169.69 70.15 169.805 70.7182 170.028 71.2482C170.252 71.7782 170.579 72.2596 170.992 72.6648C171.405 73.07 171.895 73.391 172.434 73.6095C172.973 73.8279 173.55 73.9395 174.133 73.9379H180.461C179.879 73.9367 179.302 74.0487 178.763 74.2673C178.225 74.486 177.735 74.8071 177.323 75.2122C176.911 75.6174 176.584 76.0986 176.36 76.6284C176.137 77.1581 176.022 77.726 176.022 78.2996C176.022 78.8731 176.137 79.441 176.36 79.9708C176.584 80.5006 176.911 80.9818 177.323 81.3869C177.735 81.7921 178.225 82.1132 178.763 82.3319C179.302 82.5505 179.879 82.6625 180.461 82.6613H171.601C170.429 82.6646 169.305 83.1257 168.477 83.9433C167.649 84.7609 167.184 85.8684 167.184 87.023C167.184 88.1777 167.649 89.2852 168.477 90.1028C169.305 90.9205 170.429 91.3814 171.601 91.3848H222.863C224.036 91.3814 225.159 90.9205 225.987 90.1028C226.815 89.2852 227.28 88.1777 227.28 87.023C227.28 85.8684 226.815 84.7609 225.987 83.9433C225.159 83.1257 224.036 82.6646 222.863 82.6613H231.723C232.896 82.659 234.021 82.1984 234.85 81.3807C235.679 80.5629 236.144 79.4549 236.144 78.2996C236.144 77.1443 235.679 76.0362 234.85 75.2185C234.021 74.4008 232.896 73.9402 231.723 73.9379Z" fill="#DEE3F3"/>
<path opacity="0.5" d="M741.941 23.3078H737.124C738.018 23.3078 738.876 22.9581 739.508 22.3356C740.141 21.713 740.496 20.8687 740.496 19.9883C740.496 19.1079 740.141 18.2635 739.508 17.641C738.876 17.0185 738.018 16.6687 737.124 16.6687H698.111C697.217 16.6687 696.359 17.0185 695.727 17.641C695.095 18.2635 694.739 19.1079 694.739 19.9883C694.739 20.8687 695.095 21.713 695.727 22.3356C696.359 22.9581 697.217 23.3078 698.111 23.3078H702.927C702.033 23.3078 701.176 23.6576 700.543 24.2801C699.911 24.9027 699.556 25.747 699.556 26.6274C699.556 27.5078 699.911 28.3521 700.543 28.9747C701.176 29.5972 702.033 29.947 702.927 29.947H696.184C695.741 29.947 695.303 30.0328 694.894 30.1996C694.485 30.3665 694.113 30.611 693.8 30.9192C693.487 31.2275 693.239 31.5934 693.069 31.9962C692.9 32.3989 692.813 32.8306 692.813 33.2665C692.813 33.7024 692.9 34.1341 693.069 34.5368C693.239 34.9396 693.487 35.3055 693.8 35.6138C694.113 35.922 694.485 36.1666 694.894 36.3334C695.303 36.5002 695.741 36.5861 696.184 36.5861H735.198C735.64 36.5861 736.079 36.5002 736.488 36.3334C736.897 36.1666 737.269 35.922 737.582 35.6138C737.895 35.3055 738.143 34.9396 738.313 34.5368C738.482 34.1341 738.569 33.7024 738.569 33.2665C738.569 32.8306 738.482 32.3989 738.313 31.9962C738.143 31.5934 737.895 31.2275 737.582 30.9192C737.269 30.611 736.897 30.3665 736.488 30.1996C736.079 30.0328 735.64 29.947 735.198 29.947H741.941C742.835 29.947 743.692 29.5972 744.325 28.9747C744.957 28.3521 745.312 27.5078 745.312 26.6274C745.312 25.747 744.957 24.9027 744.325 24.2801C743.692 23.6576 742.835 23.3078 741.941 23.3078H741.941Z" fill="#DEE3F3"/>
<path opacity="0.5" d="M353.131 12.359H346.802C347.385 12.3607 347.963 12.2491 348.502 12.0306C349.041 11.8122 349.531 11.4911 349.943 11.086C350.356 10.6808 350.683 10.1994 350.907 9.66937C351.13 9.13936 351.245 8.57114 351.245 7.99729C351.245 7.42344 351.13 6.85523 350.907 6.32522C350.683 5.79521 350.356 5.31382 349.943 4.90863C349.531 4.50344 349.041 4.18242 348.502 3.96396C347.963 3.74551 347.385 3.63391 346.802 3.63556H295.541C294.958 3.63391 294.38 3.74551 293.842 3.96396C293.303 4.18242 292.813 4.50344 292.4 4.90863C291.987 5.31382 291.66 5.79521 291.436 6.32522C291.213 6.85523 291.098 7.42344 291.098 7.99729C291.098 8.57114 291.213 9.13936 291.436 9.66937C291.66 10.1994 291.987 10.6808 292.4 11.086C292.813 11.4911 293.303 11.8122 293.842 12.0306C294.38 12.2491 294.958 12.3607 295.541 12.359H301.869C301.287 12.3579 300.71 12.4698 300.171 12.6885C299.633 12.9072 299.143 13.2283 298.731 13.6334C298.319 14.0385 297.992 14.5198 297.768 15.0495C297.545 15.5793 297.43 16.1472 297.43 16.7208C297.43 17.2943 297.545 17.8622 297.768 18.392C297.992 18.9217 298.319 19.403 298.731 19.8081C299.143 20.2132 299.633 20.5343 300.171 20.753C300.71 20.9717 301.287 21.0836 301.869 21.0825H293.009C291.837 21.0858 290.713 21.5468 289.885 22.3644C289.057 23.1821 288.592 24.2896 288.592 25.4442C288.592 26.5988 289.057 27.7064 289.885 28.524C290.713 29.3416 291.837 29.8026 293.009 29.8059H344.271C345.444 29.8026 346.567 29.3416 347.395 28.524C348.223 27.7064 348.688 26.5988 348.688 25.4442C348.688 24.2896 348.223 23.1821 347.395 22.3644C346.567 21.5468 345.444 21.0858 344.271 21.0825H353.131C354.304 21.0801 355.429 20.6195 356.258 19.8018C357.087 18.9841 357.552 17.876 357.552 16.7208C357.552 15.5655 357.087 14.4574 356.258 13.6397C355.429 12.822 354.304 12.3614 353.131 12.359Z" fill="#DEE3F3"/>
<path d="M549.045 240.01H359.51C352.922 240.01 347.581 245.269 347.581 251.755V325.704C347.581 332.191 352.922 337.449 359.51 337.449H549.045C555.633 337.449 560.974 332.191 560.974 325.704V251.755C560.974 245.269 555.633 240.01 549.045 240.01Z" fill="#5BC2D9"/>
<path opacity="0.1" d="M543.964 322.495H364.591V324.321H543.964V322.495Z" fill="black"/>
<path opacity="0.3" d="M543.964 255.235H364.591V322.225H543.964V255.235Z" fill="black"/>
<path opacity="0.1" d="M406.341 314.488C420.006 314.488 431.083 303.581 431.083 290.128C431.083 276.674 420.006 265.768 406.341 265.768C392.677 265.768 381.6 276.674 381.6 290.128C381.6 303.581 392.677 314.488 406.341 314.488Z" fill="black"/>
<path opacity="0.1" d="M502.213 314.488C515.877 314.488 526.954 303.581 526.954 290.128C526.954 276.674 515.877 265.768 502.213 265.768C488.549 265.768 477.472 276.674 477.472 290.128C477.472 303.581 488.549 314.488 502.213 314.488Z" fill="black"/>
<path d="M472.83 337.447H435.72V358.767H472.83V337.447Z" fill="#5BC2D9"/>
<path d="M531.593 352.674H376.961V474.473H531.593V352.674Z" fill="#5BC2D9"/>
<path d="M534.686 498.833H373.869V514.058H534.686V498.833Z" fill="#5BC2D9"/>
<path d="M400.156 550.598V568.868V596.273V611.497V620.632H427.99V611.497V596.273V568.868V550.598V529.283H400.156V550.598Z" fill="#5BC2D9"/>
<path d="M483.657 529.283V550.598V568.868V596.273V611.497V620.632H511.491V611.497V596.273V568.868V550.598V529.283H483.657Z" fill="#5BC2D9"/>
<path d="M355.899 380.08V408.244C348.26 409.557 341.141 412.936 335.339 418.002C329.958 422.908 325.773 428.949 323.099 435.673C319.521 444.208 317.781 453.687 317.071 462.648C316.196 474.735 316.77 486.882 318.782 498.837H287.856C286.543 482.004 286.962 467.562 288.666 455.162C290.575 441.181 294.111 429.801 298.591 420.546C307.551 402.043 320.294 392.005 331.491 386.553C344.788 380.08 355.899 380.08 355.899 380.08Z" fill="#5BC2D9"/>
<path opacity="0.3" d="M427.99 529.283H400.156V550.598H427.99V529.283Z" fill="black"/>
<path opacity="0.3" d="M427.99 568.867H400.156V596.272H427.99V568.867Z" fill="black"/>
<path opacity="0.3" d="M427.99 611.497H400.156V620.632H427.99V611.497Z" fill="black"/>
<path opacity="0.3" d="M511.491 529.283H483.658V550.598H511.491V529.283Z" fill="black"/>
<path opacity="0.3" d="M511.491 568.867H483.658V596.272H511.491V568.867Z" fill="black"/>
<path opacity="0.3" d="M511.491 611.497H483.658V620.632H511.491V611.497Z" fill="black"/>
<path opacity="0.3" d="M355.899 380.08V408.244C348.259 409.557 341.141 412.936 335.339 418.002L331.49 386.553C344.788 380.08 355.899 380.08 355.899 380.08Z" fill="black"/>
<path opacity="0.3" d="M323.099 435.673C319.521 444.208 317.781 453.687 317.071 462.648L288.666 455.162C290.575 441.181 294.111 429.801 298.591 420.546L323.099 435.673Z" fill="black"/>
<path d="M552.656 380.08V408.244C560.295 409.557 567.414 412.936 573.216 418.002C578.597 422.908 582.781 428.949 585.456 435.673C589.034 444.208 590.774 453.687 591.484 462.648C592.359 474.735 591.785 486.882 589.773 498.837H620.699C622.012 482.004 621.593 467.562 619.889 455.162C617.979 441.181 614.444 429.801 609.964 420.546C601.004 402.043 588.26 392.005 577.064 386.553C563.767 380.08 552.656 380.08 552.656 380.08Z" fill="#5BC2D9"/>
<path opacity="0.3" d="M552.656 380.08V408.244C560.295 409.557 567.414 412.936 573.216 418.002L577.064 386.553C563.767 380.08 552.656 380.08 552.656 380.08Z" fill="black"/>
<path opacity="0.3" d="M585.456 435.673C589.034 444.208 590.774 453.687 591.484 462.648L619.889 455.162C617.979 441.181 614.444 429.801 609.964 420.546L585.456 435.673Z" fill="black"/>
<path opacity="0.1" d="M472.83 337.447H435.72V339.969H472.83V337.447Z" fill="black"/>
<path opacity="0.1" d="M534.342 374.376V425.369C532.491 423.403 531.464 420.822 531.466 418.142V381.597C531.464 378.919 532.492 376.339 534.342 374.376Z" fill="black"/>
<path opacity="0.1" d="M377.51 377.738V415.912C377.326 418.325 376.309 420.604 374.628 422.371V371.279C376.309 373.046 377.326 375.325 377.51 377.738Z" fill="black"/>
<path opacity="0.1" d="M523.862 474.476H384.695V476.278H523.862V474.476Z" fill="black"/>
<path opacity="0.1" d="M449.636 514.061H381.6V515.46H449.636V514.061Z" fill="black"/>
<path opacity="0.1" d="M523.862 514.061H455.826V515.46H523.862V514.061Z" fill="black"/>
<path d="M399.839 149.837H389.189V240.01H399.839V149.837Z" fill="#5BC2D9"/>
<path d="M521.953 149.837H511.303V240.01H521.953V149.837Z" fill="#5BC2D9"/>
<path opacity="0.1" d="M394.159 162.419C400.825 162.419 406.228 157.099 406.228 150.536C406.228 143.973 400.825 138.652 394.159 138.652C387.493 138.652 382.09 143.973 382.09 150.536C382.09 157.099 387.493 162.419 394.159 162.419Z" fill="black"/>
<path d="M394.159 161.72C400.825 161.72 406.228 156.4 406.228 149.837C406.228 143.274 400.825 137.953 394.159 137.953C387.493 137.953 382.09 143.274 382.09 149.837C382.09 156.4 387.493 161.72 394.159 161.72Z" fill="#5BC2D9"/>
<path opacity="0.1" d="M516.983 162.419C523.648 162.419 529.052 157.099 529.052 150.536C529.052 143.973 523.648 138.652 516.983 138.652C510.317 138.652 504.913 143.973 504.913 150.536C504.913 157.099 510.317 162.419 516.983 162.419Z" fill="black"/>
<path d="M516.983 161.72C523.648 161.72 529.052 156.4 529.052 149.837C529.052 143.274 523.648 137.953 516.983 137.953C510.317 137.953 504.913 143.274 504.913 149.837C504.913 156.4 510.317 161.72 516.983 161.72Z" fill="#5BC2D9"/>
<path d="M139.364 426.081C139.364 426.081 174.683 494.341 145.904 531.692C117.126 569.042 148.521 670.789 148.521 670.789" stroke="#FC6681" stroke-width="2" stroke-miterlimit="10"/>
<path d="M149.828 404.83C149.828 417.989 140.018 428.657 140.018 428.657C140.018 428.657 130.207 417.989 130.207 404.83C130.207 391.671 140.018 381.003 140.018 381.003C140.018 381.003 149.828 391.671 149.828 404.83Z" fill="#FC6681"/>
<path d="M157.677 426.081C157.677 426.081 122.359 494.341 151.137 531.692C179.915 569.042 148.521 670.789 148.521 670.789" stroke="#FFD037" stroke-width="2" stroke-miterlimit="10"/>
<path d="M147.212 404.83C147.212 417.989 157.023 428.657 157.023 428.657C157.023 428.657 166.834 417.989 166.834 404.83C166.834 391.671 157.023 381.003 157.023 381.003C157.023 381.003 147.212 391.671 147.212 404.83Z" fill="#FFD037"/>
<path d="M172.066 426.081C172.066 426.081 207.385 494.341 178.607 531.692C149.829 569.042 181.223 670.789 181.223 670.789" stroke="#FC6681" stroke-width="2" stroke-miterlimit="10"/>
<path d="M182.531 404.83C182.531 417.989 172.72 428.657 172.72 428.657C172.72 428.657 162.91 417.989 162.91 404.83C162.91 391.671 172.72 381.003 172.72 381.003C172.72 381.003 182.531 391.671 182.531 404.83Z" fill="#FC6681"/>
<path d="M177.031 459.523C167.765 469.006 153.183 469.996 153.183 469.996C153.183 469.996 153.625 455.612 162.891 446.129C172.157 436.645 186.739 435.655 186.739 435.655C186.739 435.655 186.297 450.039 177.031 459.523Z" fill="#FC6681"/>
<path d="M177.951 506.613C168.685 516.096 154.103 517.087 154.103 517.087C154.103 517.087 154.545 502.702 163.811 493.219C173.077 483.736 187.659 482.745 187.659 482.745C187.659 482.745 187.217 497.13 177.951 506.613Z" fill="#FC6681"/>
<path d="M127.702 532.523C136.465 542.46 136.159 556.848 136.159 556.848C136.159 556.848 121.648 555.125 112.886 545.189C104.124 535.252 104.429 520.864 104.429 520.864C104.429 520.864 118.94 522.586 127.702 532.523Z" fill="#FC6681"/>
<path d="M135.831 432.096C146.972 439.365 150.583 453.31 150.583 453.31C150.583 453.31 136.132 455.469 124.992 448.199C113.851 440.93 110.24 426.985 110.24 426.985C110.24 426.985 124.691 424.826 135.831 432.096Z" fill="#FC6681"/>
<path d="M190.38 426.081C190.38 426.081 155.061 494.341 183.839 531.692C212.618 569.042 181.223 670.789 181.223 670.789" stroke="#FFD037" stroke-width="2" stroke-miterlimit="10"/>
<path d="M179.915 404.83C179.915 417.989 189.726 428.657 189.726 428.657C189.726 428.657 199.537 417.989 199.537 404.83C199.537 391.671 189.726 381.003 189.726 381.003C189.726 381.003 179.915 391.671 179.915 404.83Z" fill="#FFD037"/>
<path d="M182.738 460.535C173.357 469.908 172.74 484.286 172.74 484.286C172.74 484.286 187.333 483.468 196.714 474.095C206.095 464.722 206.711 450.344 206.711 450.344C206.711 450.344 192.119 451.162 182.738 460.535Z" fill="#FFD037"/>
<path d="M201.133 525.737C191.752 535.11 191.135 549.488 191.135 549.488C191.135 549.488 205.728 548.67 215.109 539.297C224.49 529.923 225.107 515.545 225.107 515.545C225.107 515.545 210.514 516.364 201.133 525.737Z" fill="#FFD037"/>
<path d="M174.069 511.407C174.069 511.407 195.33 478.412 225.169 477.703" stroke="#FFD037" stroke-width="2" stroke-miterlimit="10"/>
<path d="M157.514 491.484C157.514 491.484 136.253 458.489 106.414 457.78" stroke="#FC6681" stroke-width="2" stroke-miterlimit="10"/>
<path d="M154.754 538.574C154.754 538.574 176.015 505.579 205.854 504.87" stroke="#FFD037" stroke-width="2" stroke-miterlimit="10"/>
<path d="M224.196 482.881C227.244 482.881 229.715 480.448 229.715 477.447C229.715 474.446 227.244 472.014 224.196 472.014C221.148 472.014 218.678 474.446 218.678 477.447C218.678 480.448 221.148 482.881 224.196 482.881Z" fill="#FFD037"/>
<path d="M106.927 463.411C109.975 463.411 112.446 460.978 112.446 457.977C112.446 454.976 109.975 452.544 106.927 452.544C103.879 452.544 101.408 454.976 101.408 457.977C101.408 460.978 103.879 463.411 106.927 463.411Z" fill="#FC6681"/>
<path d="M170.39 549.441C170.39 549.441 149.13 516.446 119.291 515.737" stroke="#FC6681" stroke-width="2" stroke-miterlimit="10"/>
<path d="M119.804 521.368C122.852 521.368 125.322 518.935 125.322 515.934C125.322 512.934 122.852 510.501 119.804 510.501C116.756 510.501 114.285 512.934 114.285 515.934C114.285 518.935 116.756 521.368 119.804 521.368Z" fill="#FC6681"/>
<path d="M206.261 510.501C209.309 510.501 211.78 508.068 211.78 505.067C211.78 502.067 209.309 499.634 206.261 499.634C203.213 499.634 200.742 502.067 200.742 505.067C200.742 508.068 203.213 510.501 206.261 510.501Z" fill="#FFD037"/>
<path d="M287.908 631.155C287.908 631.155 236.675 621.066 223.012 607.614C209.35 594.163 147.87 570.622 141.039 587.437C134.208 604.251 48.8188 661.421 106.883 671.51C164.948 681.598 243.506 684.961 260.584 678.235C277.661 671.51 287.908 631.155 287.908 631.155Z" fill="#A8A8A8"/>
<path opacity="0.2" d="M106.883 665.263C164.948 675.352 243.506 678.714 260.583 671.989C273.589 666.866 282.626 642.257 286.2 630.804C287.281 631.03 287.908 631.155 287.908 631.155C287.908 631.155 277.661 671.51 260.583 678.235C243.506 684.961 164.948 681.598 106.883 671.51C90.1223 668.597 85.3291 661.758 87.1347 653.103C88.5678 658.75 94.4078 663.095 106.883 665.263Z" fill="black"/>
<path d="M841.256 438.132C841.256 438.132 853.532 453.938 835.59 477.801C817.649 501.665 802.855 521.809 808.835 536.685C808.835 536.685 835.905 492.367 857.939 491.747C879.972 491.128 865.493 464.785 841.256 438.132Z" fill="#FC6681"/>
<path opacity="0.1" d="M841.256 438.132C842.327 439.659 843.171 441.328 843.765 443.089C865.262 467.958 876.715 491.166 856.05 491.747C836.802 492.289 813.711 526.178 808.181 534.737C808.362 535.398 808.58 536.048 808.835 536.685C808.835 536.685 835.905 492.367 857.939 491.747C879.972 491.128 865.493 464.785 841.256 438.132Z" fill="black"/>
<path d="M864.076 458.277C864.076 463.84 863.442 468.349 862.66 468.349C861.878 468.349 861.244 463.84 861.244 458.277C861.244 452.714 862.035 455.333 862.817 455.333C863.6 455.333 864.076 452.714 864.076 458.277Z" fill="#FFD037"/>
<path d="M871.908 464.918C866.947 467.58 862.622 469.19 862.247 468.514C861.873 467.838 865.591 465.131 870.552 462.469C875.512 459.807 873.556 461.744 873.931 462.421C874.305 463.097 876.868 462.256 871.908 464.918Z" fill="#FFD037"/>
<path d="M776.414 438.132C776.414 438.132 764.139 453.938 782.08 477.801C800.022 501.665 814.816 521.809 808.835 536.685C808.835 536.685 781.765 492.367 759.732 491.747C737.698 491.128 752.177 464.785 776.414 438.132Z" fill="#FC6681"/>
<path opacity="0.1" d="M776.414 438.132C775.344 439.659 774.5 441.328 773.906 443.089C752.408 467.958 740.956 491.166 761.62 491.747C780.869 492.289 803.96 526.178 809.49 534.737C809.309 535.398 809.09 536.048 808.835 536.685C808.835 536.685 781.765 492.367 759.732 491.748C737.698 491.128 752.177 464.785 776.414 438.132Z" fill="black"/>
<path d="M753.594 458.277C753.594 463.84 754.228 468.349 755.01 468.349C755.792 468.349 756.427 463.84 756.427 458.277C756.427 452.714 755.635 455.333 754.853 455.333C754.07 455.333 753.594 452.714 753.594 458.277Z" fill="#FFD037"/>
<path d="M745.763 464.918C750.724 467.58 755.049 469.19 755.423 468.514C755.797 467.838 752.079 465.131 747.119 462.469C742.158 459.807 744.114 461.744 743.74 462.421C743.365 463.097 740.802 462.256 745.763 464.918Z" fill="#FFD037"/>
<path d="M757.503 534.617C757.503 534.617 791.825 533.576 802.169 526.324C812.512 519.072 854.964 510.413 857.53 522.043C860.096 533.674 909.109 579.889 870.36 580.197C831.611 580.505 780.325 574.254 770.001 568.063C759.677 561.871 757.503 534.617 757.503 534.617Z" fill="#A8A8A8"/>
<path opacity="0.2" d="M871.052 576.148C832.303 576.456 781.016 570.206 770.692 564.014C762.83 559.299 759.697 542.379 758.649 534.573C757.923 534.604 757.503 534.617 757.503 534.617C757.503 534.617 759.677 561.871 770.001 568.063C780.325 574.254 831.611 580.505 870.36 580.197C881.545 580.108 885.409 576.19 885.197 570.387C883.643 573.893 879.377 576.082 871.052 576.148Z" fill="black"/>
</g>
<defs>
<clipPath id="clip0">
<rect width="946" height="681.469" fill="white" transform="translate(0 0.265381)"/>
</clipPath>
</defs>
</svg>
