<svg width="24" height="25" viewBox="0 0 24 25" fill="none" xmlns="http://www.w3.org/2000/svg">
<circle cx="12" cy="12.8826" r="12" fill="#00A689"/>
<path d="M13.8994 11.7529L10.7527 10.8725C10.3885 10.7722 10.135 10.4462 10.135 10.084C10.135 9.62986 10.5196 9.26209 10.9945 9.26209H12.9263C13.2817 9.26209 13.6314 9.36518 13.9227 9.55464C14.1005 9.66887 14.3394 9.64101 14.4909 9.49892L15.5048 8.55162C15.7117 8.35938 15.6826 8.03897 15.4524 7.86901C14.7385 7.33407 13.847 7.03596 12.9321 7.03317V5.69582C12.9321 5.45063 12.7223 5.25003 12.4659 5.25003H11.5336C11.2772 5.25003 11.0674 5.45063 11.0674 5.69582V7.03317H10.9945C9.13855 7.03317 7.64678 8.5572 7.81868 10.3654C7.94105 11.6498 8.96665 12.6946 10.2603 13.0568L13.2468 13.8927C13.611 13.9958 13.8645 14.319 13.8645 14.6812C13.8645 15.1353 13.4799 15.5031 13.0049 15.5031H11.0732C10.7177 15.5031 10.3681 15.4 10.0767 15.2105C9.89901 15.0963 9.66009 15.1242 9.50859 15.2663L8.49464 16.2135C8.28778 16.4058 8.31691 16.7262 8.54709 16.8962C9.26093 17.4311 10.1525 17.7292 11.0674 17.732V19.0694C11.0674 19.3145 11.2772 19.5151 11.5336 19.5151H12.4659C12.7223 19.5151 12.9321 19.3145 12.9321 19.0694V17.7264C14.2898 17.7014 15.5631 16.9296 16.0118 15.7009C16.6382 13.9846 15.5864 12.2238 13.8994 11.7529Z" fill="#001F24"/>
</svg>
